<svg xmlns="http://www.w3.org/2000/svg" fill="none" viewBox="0 0 260 81">
	<path fill="#F2F2F2"
		d="M138.525 31.06c0 16.319-12.86 29.153-29.304 29.153S79.918 47.37 79.918 31.06c0-16.396 12.855-29.453 29.303-29.453 16.449 0 29.304 13.057 29.304 29.453Zm-10.241 0c0-11.354-8.373-19.958-19.063-19.958S90.159 19.706 90.159 31.06c0 11.353 8.373 19.73 19.062 19.73 10.69 0 19.063-8.382 19.063-19.73Zm24.12 16.185c.505 3.802 3.177 5.29 6.066 5.29 3.335 0 4.84-1.862 4.84-3.871 0-1.415-.721-2.684-2.889-3.278l-7.154-2.013c-5.707-1.565-9.463-4.847-9.463-10.658 0-6.934 5.274-11.928 13.728-11.928 8.092 0 13.653 4.546 14.807 11.033l-9.1 1.862c-.363-2.98-2.168-5.44-5.707-5.44-2.672 0-4.19 1.414-4.19 3.354 0 1.94 1.443 3.054 3.902 3.725l6.708 1.936c5.782 1.639 8.671 5.217 8.671 10.659 0 7.901-5.999 12.297-14.737 12.297-7.087 0-14.232-2.908-15.099-10.956l9.617-2.012Zm57.3 12.955-11.373-10.96-8.496 10.96h-9.753V.541h9.753v44.072l17.58-21.625h11.155l-14.259 18.505 18.394 18.72-13.001-.013ZM260 63.529c0 9.727-7.686 16.93-19.314 16.93-8.583 0-14.796-3.047-17.981-8.172l7.921-6.757c2.887 3.642 5.252 5.348 10.06 5.348 5.701 0 9.548-4.011 9.548-8.836V55.58c-2.886 2.897-6.734 4.457-11.619 4.457-8.877 0-14.8-6.385-14.8-15.594V21.87h9.753v20.495c0 5.198 2.946 8.669 7.473 8.669 5.551 0 9.176-3.711 9.176-12.77V21.852H260V63.53Z" />
	<path fill="#4141F9" d="M9.46 42.383a9.46 9.46 0 1 0 0-18.921 9.46 9.46 0 0 0 0 18.921Z" />
	<path fill="#4141F9" d="M9.54 42.467a9.465 9.465 0 1 0 0-18.93 9.465 9.465 0 0 0 0 18.93Z" />
	<path fill="#4141F9" d="M9.619 42.551a9.47 9.47 0 1 0 0-18.94 9.47 9.47 0 0 0 0 18.94Z" />
	<path fill="#4141F9" d="M9.698 42.636a9.475 9.475 0 1 0 0-18.95 9.475 9.475 0 0 0 0 18.95Z" />
	<path fill="#4141F9"
		d="M9.778 42.72a9.48 9.48 0 0 0 9.48-9.48 9.48 9.48 0 0 0-9.48-9.48 9.48 9.48 0 1 0 0 18.96Z" />
	<path fill="#4141F9" d="M9.857 42.804a9.485 9.485 0 1 0 0-18.97 9.485 9.485 0 0 0 0 18.97Z" />
	<path fill="#4141F9" d="M9.936 42.888a9.49 9.49 0 1 0 0-18.98 9.49 9.49 0 0 0 0 18.98Z" />
	<path fill="#4141F9" d="M10.015 42.972a9.495 9.495 0 1 0 0-18.99 9.495 9.495 0 0 0 0 18.99Z" />
	<path fill="#4141F9" d="M10.094 43.056a9.5 9.5 0 1 0 0-19 9.5 9.5 0 0 0 0 19Z" />
	<path fill="#4141F9"
		d="M10.174 43.14a9.505 9.505 0 0 0 9.505-9.504 9.505 9.505 0 1 0-19.01 0 9.505 9.505 0 0 0 9.505 9.505Z" />
	<path fill="#4141F9"
		d="M10.253 43.23a9.51 9.51 0 0 0 9.51-9.51 9.51 9.51 0 0 0-9.51-9.51 9.51 9.51 0 0 0 0 19.02Z" />
	<path fill="#4141F9" d="M10.332 43.314a9.515 9.515 0 1 0 0-19.03 9.515 9.515 0 0 0 0 19.03Z" />
	<path fill="#4242F9" d="M10.412 43.398a9.52 9.52 0 1 0 0-19.04 9.52 9.52 0 0 0 0 19.04Z" />
	<path fill="#4242F9" d="M10.49 43.483a9.525 9.525 0 1 0 0-19.05 9.525 9.525 0 0 0 0 19.05Z" />
	<path fill="#4242F9" d="M10.57 43.567a9.53 9.53 0 1 0 0-19.06 9.53 9.53 0 0 0 0 19.06Z" />
	<path fill="#4242F9" d="M10.65 43.651a9.535 9.535 0 1 0 0-19.07 9.535 9.535 0 0 0 0 19.07Z" />
	<path fill="#4242F9" d="M10.729 43.74a9.545 9.545 0 1 0 0-19.09 9.545 9.545 0 0 0 0 19.09Z" />
	<path fill="#4242FA" d="M10.808 43.824a9.55 9.55 0 1 0 0-19.099 9.55 9.55 0 1 0 0 19.1Z" />
	<path fill="#4242FA" d="M10.887 43.908a9.555 9.555 0 1 0 0-19.109 9.555 9.555 0 0 0 0 19.11Z" />
	<path fill="#4242FA"
		d="M10.966 43.993a9.56 9.56 0 0 0 9.56-9.56 9.56 9.56 0 0 0-9.56-9.56 9.56 9.56 0 1 0 0 19.12Z" />
	<path fill="#4242FA"
		d="M11.046 44.077a9.564 9.564 0 0 0 9.564-9.564 9.564 9.564 0 1 0-19.129 0 9.565 9.565 0 0 0 9.565 9.564Z" />
	<path fill="#4242FA" d="M11.125 44.161a9.57 9.57 0 1 0 0-19.139 9.57 9.57 0 0 0 0 19.14Z" />
	<path fill="#4242FA" d="M11.204 44.25a9.574 9.574 0 1 0 0-19.149 9.574 9.574 0 0 0 0 19.15Z" />
	<path fill="#4242FA"
		d="M11.284 44.334a9.58 9.58 0 0 0 9.579-9.579 9.58 9.58 0 0 0-9.58-9.58 9.58 9.58 0 1 0 0 19.16Z" />
	<path fill="#4242FA" d="M11.362 44.419a9.584 9.584 0 1 0 0-19.169 9.584 9.584 0 0 0 0 19.169Z" />
	<path fill="#4242FA"
		d="M11.442 44.503a9.59 9.59 0 0 0 9.589-9.59 9.59 9.59 0 0 0-9.59-9.588 9.59 9.59 0 1 0 0 19.178Z" />
	<path fill="#4242FA" d="M11.521 44.587a9.594 9.594 0 1 0 0-19.188 9.594 9.594 0 0 0 0 19.188Z" />
	<path fill="#4242FA" d="M11.6 44.671a9.6 9.6 0 0 0 9.6-9.599 9.6 9.6 0 1 0-9.6 9.6Z" />
	<path fill="#4242FA" d="M11.68 44.755a9.604 9.604 0 1 0 0-19.208 9.604 9.604 0 0 0 0 19.208Z" />
	<path fill="#4242FA" d="M11.759 44.84a9.609 9.609 0 1 0 0-19.219 9.609 9.609 0 0 0 0 19.218Z" />
	<path fill="#4242FA" d="M11.838 44.924a9.614 9.614 0 1 0 0-19.228 9.614 9.614 0 0 0 0 19.228Z" />
	<path fill="#4242FA" d="M11.917 45.008a9.619 9.619 0 1 0 0-19.238 9.619 9.619 0 0 0 0 19.238Z" />
	<path fill="#4242FA" d="M11.997 45.092a9.624 9.624 0 1 0 0-19.247 9.624 9.624 0 0 0 0 19.247Z" />
	<path fill="#4242FA"
		d="M12.076 45.181a9.629 9.629 0 0 0 9.629-9.628 9.629 9.629 0 1 0-19.258 0 9.629 9.629 0 0 0 9.629 9.629Z" />
	<path fill="#4343FA"
		d="M12.155 45.27a9.639 9.639 0 0 0 9.639-9.638 9.639 9.639 0 0 0-9.64-9.639 9.639 9.639 0 1 0 0 19.278Z" />
	<path fill="#4343FA"
		d="M12.234 45.355c5.326 0 9.644-4.318 9.644-9.644a9.644 9.644 0 0 0-9.644-9.644 9.644 9.644 0 0 0 0 19.288Z" />
	<path fill="#4343FA" d="M12.313 45.44a9.649 9.649 0 1 0 0-19.298 9.649 9.649 0 0 0 0 19.297Z" />
	<path fill="#4343FA"
		d="M12.393 45.523c5.331 0 9.653-4.322 9.653-9.653a9.654 9.654 0 1 0-19.307 0 9.654 9.654 0 0 0 9.654 9.653Z" />
	<path fill="#4343FA"
		d="M12.472 45.608a9.659 9.659 0 0 0 9.659-9.66 9.659 9.659 0 0 0-9.659-9.658 9.659 9.659 0 1 0 0 19.318Z" />
	<path fill="#4343FA"
		d="M12.552 45.692c5.337 0 9.663-4.327 9.663-9.664s-4.326-9.663-9.663-9.663c-5.338 0-9.664 4.326-9.664 9.663a9.664 9.664 0 0 0 9.664 9.664Z" />
	<path fill="#4343FA"
		d="M12.63 45.776c5.34 0 9.67-4.329 9.67-9.669 0-5.34-4.33-9.668-9.67-9.668s-9.668 4.329-9.668 9.668c0 5.34 4.329 9.669 9.669 9.669Z" />
	<path fill="#4343FA"
		d="M12.71 45.86c5.342 0 9.673-4.331 9.673-9.673 0-5.343-4.33-9.674-9.673-9.674a9.674 9.674 0 1 0 0 19.347Z" />
	<path fill="#4343FA"
		d="M12.789 45.944a9.678 9.678 0 0 0 9.678-9.678c0-5.345-4.333-9.679-9.678-9.679-5.345 0-9.678 4.334-9.678 9.679 0 5.345 4.333 9.678 9.678 9.678Z" />
	<path fill="#4343FA"
		d="M12.868 46.029c5.348 0 9.684-4.336 9.684-9.684 0-5.348-4.336-9.683-9.684-9.683-5.348 0-9.683 4.335-9.683 9.683s4.335 9.684 9.683 9.684Z" />
	<path fill="#4343FA"
		d="M12.948 46.113c5.35 0 9.688-4.338 9.688-9.689 0-5.35-4.338-9.688-9.688-9.688-5.351 0-9.689 4.338-9.689 9.688 0 5.351 4.338 9.689 9.689 9.689Z" />
	<path fill="#4343FA"
		d="M13.027 46.202c5.353 0 9.693-4.34 9.693-9.693a9.694 9.694 0 1 0-9.693 9.693Z" />
	<path fill="#4343FA"
		d="M13.106 46.286c5.356 0 9.698-4.342 9.698-9.698 0-5.356-4.342-9.698-9.698-9.698-5.356 0-9.698 4.342-9.698 9.698 0 5.356 4.342 9.698 9.698 9.698Z" />
	<path fill="#4343FA"
		d="M13.185 46.37c5.36 0 9.704-4.344 9.704-9.703 0-5.359-4.345-9.703-9.704-9.703a9.703 9.703 0 0 0-9.703 9.703 9.703 9.703 0 0 0 9.703 9.703Z" />
	<path fill="#4343FA"
		d="M13.264 46.455c5.362 0 9.709-4.347 9.709-9.709 0-5.361-4.347-9.708-9.708-9.708-5.362 0-9.709 4.347-9.709 9.708 0 5.362 4.347 9.709 9.709 9.709Z" />
	<path fill="#4343FA"
		d="M13.344 46.539c5.364 0 9.713-4.35 9.713-9.714 0-5.364-4.349-9.713-9.713-9.713-5.365 0-9.713 4.35-9.713 9.713 0 5.365 4.348 9.714 9.713 9.714Z" />
	<path fill="#4343FA"
		d="M13.423 46.623a9.717 9.717 0 0 0 9.718-9.718c0-5.367-4.351-9.718-9.718-9.718s-9.718 4.35-9.718 9.718a9.717 9.717 0 0 0 9.718 9.718Z" />
	<path fill="#4343FB"
		d="M13.502 46.712c5.373 0 9.728-4.356 9.728-9.728a9.728 9.728 0 0 0-9.728-9.728c-5.372 0-9.728 4.355-9.728 9.728 0 5.372 4.356 9.728 9.728 9.728Z" />
	<path fill="#4343FB"
		d="M13.581 46.796a9.732 9.732 0 0 0 9.733-9.733c0-5.375-4.357-9.733-9.733-9.733-5.375 0-9.733 4.358-9.733 9.733 0 5.376 4.358 9.733 9.733 9.733Z" />
	<path fill="#4343FB"
		d="M13.66 46.88c5.379 0 9.739-4.36 9.739-9.738 0-5.378-4.36-9.737-9.738-9.737-5.378 0-9.738 4.36-9.738 9.737 0 5.379 4.36 9.738 9.738 9.738Z" />
	<path fill="#4343FB"
		d="M13.74 46.965c5.38 0 9.743-4.362 9.743-9.743s-4.362-9.743-9.743-9.743c-5.38 0-9.743 4.362-9.743 9.743 0 5.38 4.362 9.743 9.743 9.743Z" />
	<path fill="#4343FB"
		d="M13.82 47.049c5.383 0 9.747-4.364 9.747-9.748 0-5.383-4.364-9.748-9.748-9.748-5.383 0-9.747 4.365-9.747 9.748 0 5.384 4.364 9.748 9.747 9.748Z" />
	<path fill="#4444FB"
		d="M13.899 47.133c5.386 0 9.752-4.366 9.752-9.753 0-5.386-4.366-9.752-9.752-9.752-5.387 0-9.753 4.366-9.753 9.752a9.752 9.752 0 0 0 9.753 9.753Z" />
	<path fill="#4444FB"
		d="M13.978 47.222c5.389 0 9.758-4.368 9.758-9.757 0-5.39-4.37-9.758-9.758-9.758-5.39 0-9.758 4.369-9.758 9.758 0 5.389 4.369 9.757 9.758 9.757Z" />
	<path fill="#4444FB"
		d="M14.057 47.306c5.392 0 9.763-4.37 9.763-9.762s-4.371-9.763-9.763-9.763c-5.392 0-9.763 4.371-9.763 9.763 0 5.392 4.371 9.762 9.763 9.762Z" />
	<path fill="#4444FB"
		d="M14.136 47.39c5.395 0 9.768-4.373 9.768-9.767 0-5.394-4.373-9.767-9.768-9.767-5.394 0-9.767 4.373-9.767 9.767 0 5.395 4.373 9.768 9.767 9.768Z" />
	<path fill="#4444FB"
		d="M14.216 47.475c5.397 0 9.772-4.375 9.772-9.773 0-5.397-4.375-9.772-9.772-9.772-5.398 0-9.773 4.375-9.773 9.772a9.772 9.772 0 0 0 9.773 9.773Z" />
	<path fill="#4444FB"
		d="M14.295 47.559c5.4 0 9.777-4.378 9.777-9.778s-4.377-9.777-9.777-9.777c-5.4 0-9.778 4.377-9.778 9.777 0 5.4 4.378 9.778 9.778 9.778Z" />
	<path fill="#4444FB"
		d="M14.374 47.643c5.403 0 9.782-4.38 9.782-9.782 0-5.403-4.38-9.783-9.782-9.783-5.403 0-9.782 4.38-9.782 9.783s4.38 9.782 9.782 9.782Z" />
	<path fill="#4444FB"
		d="M14.453 47.727c5.406 0 9.788-4.382 9.788-9.787 0-5.405-4.382-9.787-9.788-9.787-5.405 0-9.787 4.382-9.787 9.787 0 5.405 4.382 9.787 9.787 9.787Z" />
	<path fill="#4444FB"
		d="M14.533 47.812c5.408 0 9.792-4.385 9.792-9.793 0-5.408-4.384-9.792-9.792-9.792-5.409 0-9.793 4.384-9.793 9.792 0 5.408 4.384 9.793 9.793 9.793Z" />
	<path fill="#4444FB"
		d="M14.612 47.896c5.41 0 9.797-4.386 9.797-9.797 0-5.411-4.386-9.798-9.797-9.798-5.41 0-9.797 4.387-9.797 9.798 0 5.41 4.386 9.797 9.797 9.797Z" />
	<path fill="#4444FB"
		d="M14.69 47.98c5.415 0 9.803-4.389 9.803-9.802 0-5.414-4.388-9.802-9.802-9.802s-9.802 4.388-9.802 9.802c0 5.413 4.388 9.802 9.802 9.802Z" />
	<path fill="#4444FB"
		d="M14.77 48.064c5.417 0 9.808-4.39 9.808-9.807 0-5.416-4.391-9.807-9.808-9.807-5.416 0-9.807 4.39-9.807 9.807 0 5.416 4.391 9.807 9.807 9.807Z" />
	<path fill="#4444FB"
		d="M14.85 48.148c5.419 0 9.812-4.393 9.812-9.812s-4.393-9.812-9.812-9.812c-5.42 0-9.813 4.393-9.813 9.812a9.812 9.812 0 0 0 9.813 9.813Z" />
	<path fill="#4444FB"
		d="M14.929 48.242c5.424 0 9.822-4.397 9.822-9.822 0-5.424-4.398-9.822-9.822-9.822-5.425 0-9.822 4.398-9.822 9.822a9.821 9.821 0 0 0 9.822 9.822Z" />
	<path fill="#4444FB"
		d="M15.008 48.327c5.427 0 9.827-4.4 9.827-9.827 0-5.428-4.4-9.827-9.827-9.827S5.18 33.073 5.18 38.5s4.4 9.827 9.827 9.827Z" />
	<path fill="#4444FB"
		d="M15.087 48.41c5.43 0 9.832-4.401 9.832-9.831s-4.402-9.832-9.832-9.832c-5.43 0-9.832 4.402-9.832 9.832 0 5.43 4.402 9.832 9.832 9.832Z" />
	<path fill="#4444FB"
		d="M15.166 48.495c5.433 0 9.837-4.404 9.837-9.837s-4.404-9.837-9.837-9.837c-5.432 0-9.836 4.404-9.836 9.837s4.404 9.837 9.836 9.837Z" />
	<path fill="#4444FB"
		d="M15.246 48.58c5.435 0 9.842-4.407 9.842-9.843 0-5.435-4.407-9.841-9.842-9.841-5.436 0-9.842 4.406-9.842 9.841 0 5.436 4.406 9.842 9.842 9.842Z" />
	<path fill="#4444FB"
		d="M15.325 48.663c5.438 0 9.847-4.408 9.847-9.846 0-5.439-4.409-9.847-9.847-9.847s-9.847 4.408-9.847 9.847c0 5.438 4.409 9.846 9.847 9.846Z" />
	<path fill="#4444FB"
		d="M15.404 48.748c5.441 0 9.852-4.411 9.852-9.852 0-5.441-4.41-9.852-9.852-9.852-5.44 0-9.852 4.411-9.852 9.852 0 5.441 4.411 9.852 9.852 9.852Z" />
	<path fill="#4444FB"
		d="M15.483 48.832c5.444 0 9.857-4.413 9.857-9.857 0-5.444-4.413-9.857-9.857-9.857-5.443 0-9.856 4.413-9.856 9.857 0 5.444 4.413 9.857 9.856 9.857Z" />
	<path fill="#4444FB"
		d="M15.563 48.916c5.446 0 9.861-4.415 9.861-9.862 0-5.446-4.415-9.861-9.861-9.861-5.447 0-9.862 4.415-9.862 9.861 0 5.447 4.415 9.862 9.862 9.862Z" />
	<path fill="#4444FB"
		d="M15.642 49c5.45 0 9.867-4.417 9.867-9.866 0-5.45-4.418-9.867-9.867-9.867-5.45 0-9.867 4.418-9.867 9.867 0 5.449 4.418 9.866 9.867 9.866Z" />
	<path fill="#4545FB"
		d="M15.721 49.085c5.452 0 9.872-4.42 9.872-9.872s-4.42-9.872-9.872-9.872-9.871 4.42-9.871 9.872 4.42 9.872 9.871 9.872Z" />
	<path fill="#4545FB"
		d="M15.8 49.174c5.455 0 9.877-4.422 9.877-9.877 0-5.454-4.422-9.876-9.877-9.876-5.454 0-9.876 4.422-9.876 9.876 0 5.455 4.422 9.877 9.876 9.877Z" />
	<path fill="#4545FB"
		d="M15.88 49.258c5.457 0 9.881-4.424 9.881-9.882 0-5.457-4.424-9.881-9.881-9.881-5.458 0-9.882 4.424-9.882 9.881 0 5.458 4.424 9.882 9.882 9.882Z" />
	<path fill="#4545FB"
		d="M15.959 49.342c5.46 0 9.886-4.426 9.886-9.886 0-5.46-4.426-9.887-9.886-9.887-5.46 0-9.886 4.427-9.886 9.887 0 5.46 4.426 9.886 9.886 9.886Z" />
	<path fill="#4545FB"
		d="M16.038 49.426c5.463 0 9.892-4.428 9.892-9.891s-4.429-9.891-9.892-9.891c-5.463 0-9.891 4.428-9.891 9.89 0 5.464 4.428 9.892 9.891 9.892Z" />
	<path fill="#4545FC"
		d="M16.117 49.51c5.466 0 9.897-4.43 9.897-9.896 0-5.465-4.43-9.896-9.896-9.896-5.466 0-9.897 4.43-9.897 9.896 0 5.466 4.43 9.897 9.896 9.897Z" />
	<path fill="#4545FC"
		d="M16.197 49.595c5.468 0 9.901-4.433 9.901-9.902 0-5.468-4.433-9.9-9.901-9.9-5.469 0-9.902 4.432-9.902 9.9 0 5.469 4.433 9.902 9.902 9.902Z" />
	<path fill="#4545FC"
		d="M16.276 49.679c5.471 0 9.906-4.435 9.906-9.906 0-5.472-4.435-9.907-9.906-9.907-5.47 0-9.906 4.435-9.906 9.907 0 5.47 4.435 9.906 9.906 9.906Z" />
	<path fill="#4545FC"
		d="M16.355 49.768c5.477 0 9.916-4.44 9.916-9.916 0-5.477-4.44-9.916-9.916-9.916s-9.916 4.44-9.916 9.916 4.44 9.916 9.916 9.916Z" />
	<path fill="#4545FC"
		d="M16.434 49.852c5.48 0 9.922-4.441 9.922-9.92 0-5.48-4.442-9.922-9.922-9.922-5.479 0-9.92 4.442-9.92 9.921 0 5.48 4.441 9.921 9.92 9.921Z" />
	<path fill="#4545FC"
		d="M16.514 49.937c5.482 0 9.926-4.445 9.926-9.927 0-5.482-4.444-9.926-9.926-9.926s-9.926 4.444-9.926 9.926 4.444 9.927 9.926 9.927Z" />
	<path fill="#4545FC"
		d="M16.593 50.02c5.485 0 9.93-4.446 9.93-9.93 0-5.485-4.445-9.931-9.93-9.931-5.485 0-9.931 4.446-9.931 9.93 0 5.486 4.446 9.932 9.93 9.932Z" />
	<path fill="#4545FC"
		d="M16.672 50.105c5.488 0 9.936-4.449 9.936-9.936 0-5.488-4.448-9.936-9.936-9.936-5.487 0-9.936 4.448-9.936 9.936 0 5.487 4.449 9.936 9.936 9.936Z" />
	<path fill="#4545FC"
		d="M16.752 50.194c5.49 0 9.94-4.45 9.94-9.94 0-5.491-4.45-9.942-9.94-9.942-5.49 0-9.941 4.45-9.941 9.941 0 5.49 4.45 9.941 9.94 9.941Z" />
	<path fill="#4545FC"
		d="M16.83 50.278c5.494 0 9.947-4.453 9.947-9.945 0-5.493-4.453-9.946-9.946-9.946-5.493 0-9.946 4.453-9.946 9.946 0 5.492 4.453 9.945 9.946 9.945Z" />
	<path fill="#4545FC"
		d="M16.91 50.362c5.496 0 9.95-4.455 9.95-9.95 0-5.496-4.454-9.951-9.95-9.951-5.496 0-9.95 4.455-9.95 9.95 0 5.496 4.454 9.951 9.95 9.951Z" />
	<path fill="#4545FC"
		d="M16.99 50.447c5.498 0 9.955-4.458 9.955-9.956 0-5.499-4.457-9.956-9.956-9.956-5.498 0-9.956 4.457-9.956 9.956 0 5.498 4.458 9.956 9.956 9.956Z" />
	<path fill="#4545FC"
		d="M17.069 50.53c5.5 0 9.96-4.459 9.96-9.96 0-5.501-4.46-9.96-9.96-9.96-5.501 0-9.961 4.459-9.961 9.96 0 5.501 4.46 9.96 9.96 9.96Z" />
	<path fill="#4545FC"
		d="M17.148 50.615c5.504 0 9.965-4.462 9.965-9.966s-4.461-9.965-9.965-9.965-9.966 4.461-9.966 9.965 4.462 9.966 9.966 9.966Z" />
	<path fill="#4545FC"
		d="M17.227 50.7c5.507 0 9.97-4.465 9.97-9.971 0-5.507-4.463-9.97-9.97-9.97-5.507 0-9.97 4.463-9.97 9.97 0 5.506 4.463 9.97 9.97 9.97Z" />
	<path fill="#4545FC"
		d="M17.306 50.783c5.51 0 9.976-4.466 9.976-9.975 0-5.51-4.466-9.976-9.976-9.976-5.509 0-9.975 4.466-9.975 9.976 0 5.51 4.466 9.975 9.975 9.975Z" />
	<path fill="#4545FC"
		d="M17.385 50.868c5.512 0 9.98-4.469 9.98-9.98 0-5.513-4.467-9.981-9.98-9.981-5.512 0-9.98 4.468-9.98 9.98 0 5.512 4.468 9.98 9.98 9.98Z" />
	<path fill="#4646FC"
		d="M17.465 50.952c5.515 0 9.985-4.47 9.985-9.986 0-5.514-4.47-9.985-9.985-9.985s-9.986 4.47-9.986 9.985 4.47 9.986 9.986 9.986Z" />
	<path fill="#4646FC"
		d="M17.544 51.036c5.517 0 9.99-4.473 9.99-9.99 0-5.518-4.473-9.99-9.99-9.99-5.518 0-9.99 4.472-9.99 9.99 0 5.517 4.472 9.99 9.99 9.99Z" />
	<path fill="#4646FC"
		d="M17.623 51.12c5.52 0 9.996-4.475 9.996-9.995s-4.475-9.996-9.996-9.996c-5.52 0-9.995 4.476-9.995 9.996 0 5.52 4.475 9.995 9.995 9.995Z" />
	<path fill="#4646FC"
		d="M17.702 51.21c5.523 0 10-4.478 10-10 0-5.524-4.477-10.001-10-10.001s-10 4.477-10 10 4.477 10 10 10Z" />
	<path fill="#4646FC"
		d="M17.782 51.299c5.528 0 10.01-4.482 10.01-10.01 0-5.53-4.482-10.01-10.01-10.01-5.529 0-10.01 4.48-10.01 10.01 0 5.528 4.481 10.01 10.01 10.01Z" />
	<path fill="#4646FC"
		d="M17.861 51.383c5.531 0 10.015-4.484 10.015-10.016 0-5.53-4.484-10.015-10.015-10.015-5.531 0-10.015 4.484-10.015 10.015 0 5.532 4.484 10.016 10.015 10.016Z" />
	<path fill="#4646FC"
		d="M17.94 51.467c5.534 0 10.02-4.486 10.02-10.02s-4.486-10.02-10.02-10.02-10.02 4.486-10.02 10.02 4.486 10.02 10.02 10.02Z" />
	<path fill="#4646FC"
		d="M18.02 51.551c5.536 0 10.025-4.488 10.025-10.025s-4.489-10.025-10.026-10.025c-5.536 0-10.025 4.488-10.025 10.025s4.489 10.025 10.026 10.025Z" />
	<path fill="#4646FC"
		d="M18.099 51.636c5.54 0 10.03-4.491 10.03-10.03 0-5.54-4.49-10.03-10.03-10.03-5.54 0-10.03 4.49-10.03 10.03 0 5.539 4.49 10.03 10.03 10.03Z" />
	<path fill="#4646FC"
		d="M18.178 51.72c5.542 0 10.035-4.493 10.035-10.035 0-5.543-4.493-10.036-10.035-10.036S8.143 36.142 8.143 41.685c0 5.542 4.493 10.035 10.035 10.035Z" />
	<path fill="#4646FC"
		d="M18.257 51.804c5.545 0 10.04-4.495 10.04-10.04 0-5.545-4.495-10.04-10.04-10.04-5.545 0-10.04 4.495-10.04 10.04 0 5.545 4.495 10.04 10.04 10.04Z" />
	<path fill="#4646FC"
		d="M18.337 51.888c5.547 0 10.044-4.497 10.044-10.045s-4.497-10.045-10.044-10.045c-5.548 0-10.046 4.497-10.046 10.045s4.498 10.045 10.046 10.045Z" />
	<path fill="#4646FC"
		d="M18.416 51.972c5.55 0 10.05-4.5 10.05-10.05 0-5.55-4.5-10.05-10.05-10.05-5.55 0-10.05 4.5-10.05 10.05 0 5.55 4.5 10.05 10.05 10.05Z" />
	<path fill="#4646FC"
		d="M18.495 52.056c5.553 0 10.055-4.501 10.055-10.054s-4.502-10.055-10.055-10.055S8.44 36.449 8.44 42.002s4.502 10.054 10.055 10.054Z" />
	<path fill="#4646FC"
		d="M18.574 52.146c5.556 0 10.06-4.504 10.06-10.06 0-5.556-4.504-10.06-10.06-10.06-5.556 0-10.06 4.504-10.06 10.06 0 5.556 4.504 10.06 10.06 10.06Z" />
	<path fill="#4646FC"
		d="M18.654 52.23c5.558 0 10.064-4.506 10.064-10.065 0-5.559-4.506-10.065-10.064-10.065-5.559 0-10.065 4.506-10.065 10.065 0 5.559 4.506 10.065 10.065 10.065Z" />
	<path fill="#4646FC"
		d="M18.733 52.314c5.561 0 10.07-4.508 10.07-10.07 0-5.561-4.509-10.07-10.07-10.07-5.562 0-10.07 4.509-10.07 10.07 0 5.562 4.508 10.07 10.07 10.07Z" />
	<path fill="#4646FD"
		d="M18.812 52.398c5.564 0 10.075-4.51 10.075-10.075 0-5.564-4.51-10.074-10.075-10.074-5.564 0-10.075 4.51-10.075 10.074 0 5.565 4.51 10.075 10.075 10.075Z" />
	<path fill="#4646FD"
		d="M18.891 52.483c5.567 0 10.08-4.513 10.08-10.08s-4.513-10.08-10.08-10.08-10.08 4.513-10.08 10.08 4.513 10.08 10.08 10.08Z" />
	<path fill="#4646FD"
		d="M18.97 52.567c5.57 0 10.085-4.515 10.085-10.085 0-5.57-4.515-10.084-10.084-10.084-5.57 0-10.085 4.514-10.085 10.084 0 5.57 4.515 10.085 10.085 10.085Z" />
	<path fill="#4646FD"
		d="M19.05 52.65c5.572 0 10.09-4.516 10.09-10.089 0-5.572-4.518-10.09-10.09-10.09S8.96 36.99 8.96 42.562c0 5.573 4.518 10.09 10.09 10.09Z" />
	<path fill="#4646FD"
		d="M19.129 52.735c5.575 0 10.094-4.52 10.094-10.094 0-5.575-4.52-10.095-10.094-10.095-5.575 0-10.095 4.52-10.095 10.095 0 5.575 4.52 10.094 10.095 10.094Z" />
	<path fill="#4747FD"
		d="M19.208 52.824c5.58 0 10.105-4.524 10.105-10.104 0-5.58-4.524-10.105-10.105-10.105-5.58 0-10.104 4.524-10.104 10.105 0 5.58 4.524 10.104 10.104 10.104Z" />
	<path fill="#4747FD"
		d="M19.287 52.908c5.584 0 10.11-4.526 10.11-10.109s-4.526-10.11-10.11-10.11c-5.583 0-10.109 4.527-10.109 10.11 0 5.583 4.526 10.11 10.11 10.11Z" />
	<path fill="#4747FD"
		d="M19.367 52.993c5.586 0 10.114-4.529 10.114-10.115s-4.528-10.114-10.114-10.114c-5.586 0-10.115 4.528-10.115 10.114 0 5.586 4.529 10.115 10.115 10.115Z" />
	<path fill="#4747FD"
		d="M19.446 53.077c5.589 0 10.12-4.53 10.12-10.12 0-5.588-4.531-10.119-10.12-10.119-5.589 0-10.12 4.53-10.12 10.12 0 5.588 4.531 10.119 10.12 10.119Z" />
	<path fill="#4747FD"
		d="M19.525 53.166c5.592 0 10.125-4.533 10.125-10.124 0-5.592-4.533-10.124-10.125-10.124-5.591 0-10.124 4.532-10.124 10.124 0 5.591 4.533 10.124 10.124 10.124Z" />
	<path fill="#4747FD"
		d="M19.605 53.25c5.594 0 10.129-4.535 10.129-10.129 0-5.594-4.535-10.13-10.13-10.13-5.594 0-10.129 4.536-10.129 10.13 0 5.594 4.535 10.13 10.13 10.13Z" />
	<path fill="#4747FD"
		d="M19.684 53.334c5.597 0 10.134-4.537 10.134-10.134S25.28 33.066 19.684 33.066 9.55 37.603 9.55 43.2s4.537 10.134 10.134 10.134Z" />
	<path fill="#4747FD"
		d="M19.763 53.419c5.6 0 10.14-4.54 10.14-10.14 0-5.6-4.54-10.139-10.14-10.139-5.6 0-10.139 4.54-10.139 10.14 0 5.6 4.54 10.139 10.14 10.139Z" />
	<path fill="#4747FD"
		d="M19.842 53.503c5.603 0 10.144-4.542 10.144-10.144 0-5.603-4.541-10.144-10.144-10.144-5.602 0-10.144 4.541-10.144 10.144 0 5.602 4.542 10.144 10.144 10.144Z" />
	<path fill="#4747FD"
		d="M19.921 53.587c5.605 0 10.15-4.544 10.15-10.149 0-5.605-4.545-10.149-10.15-10.149S9.772 37.833 9.772 43.438c0 5.605 4.544 10.149 10.15 10.149Z" />
	<path fill="#4747FD"
		d="M20 53.671c5.609 0 10.155-4.546 10.155-10.154S25.609 33.363 20 33.363 9.847 37.91 9.847 43.517 14.393 53.671 20 53.671Z" />
	<path fill="#4747FD"
		d="M20.08 53.755c5.61 0 10.159-4.548 10.159-10.159 0-5.61-4.548-10.158-10.159-10.158-5.61 0-10.159 4.548-10.159 10.158 0 5.611 4.548 10.16 10.159 10.16Z" />
	<path fill="#4747FD"
		d="M20.16 53.84c5.613 0 10.163-4.551 10.163-10.164 0-5.614-4.55-10.164-10.164-10.164-5.613 0-10.164 4.55-10.164 10.164 0 5.613 4.55 10.163 10.164 10.163Z" />
	<path fill="#4747FD"
		d="M20.238 53.924c5.616 0 10.17-4.553 10.17-10.169 0-5.616-4.554-10.169-10.17-10.169S10.07 38.14 10.07 43.756c0 5.615 4.552 10.168 10.168 10.168Z" />
	<path fill="#4747FD"
		d="M20.318 54.008c5.619 0 10.173-4.555 10.173-10.174S25.938 33.66 20.319 33.66s-10.174 4.556-10.174 10.174c0 5.62 4.555 10.174 10.174 10.174Z" />
	<path fill="#4747FD"
		d="M20.397 54.092c5.622 0 10.179-4.557 10.179-10.178 0-5.622-4.558-10.18-10.18-10.18-5.62 0-10.178 4.558-10.178 10.18 0 5.621 4.557 10.178 10.179 10.178Z" />
	<path fill="#4747FD"
		d="M20.476 54.181c5.625 0 10.184-4.559 10.184-10.183S26.1 33.814 20.476 33.814s-10.183 4.56-10.183 10.184 4.56 10.184 10.183 10.184Z" />
	<path fill="#4747FD"
		d="M20.555 54.266c5.628 0 10.19-4.562 10.19-10.19 0-5.626-4.563-10.188-10.19-10.188S10.367 38.45 10.367 44.077s4.561 10.189 10.188 10.189Z" />
	<path fill="#4747FD"
		d="M20.635 54.355c5.632 0 10.198-4.566 10.198-10.199 0-5.632-4.566-10.198-10.198-10.198-5.633 0-10.199 4.566-10.199 10.198 0 5.633 4.566 10.199 10.199 10.199Z" />
	<path fill="#4747FD"
		d="M20.714 54.439c5.635 0 10.203-4.568 10.203-10.204 0-5.635-4.568-10.203-10.203-10.203S10.511 38.6 10.511 44.235c0 5.636 4.568 10.204 10.203 10.204Z" />
	<path fill="#4747FD"
		d="M20.793 54.523c5.638 0 10.209-4.57 10.209-10.208s-4.57-10.209-10.209-10.209c-5.638 0-10.208 4.57-10.208 10.209 0 5.638 4.57 10.208 10.208 10.208Z" />
	<path fill="#4747FD"
		d="M20.872 54.607c5.641 0 10.214-4.572 10.214-10.213 0-5.64-4.573-10.213-10.213-10.213-5.641 0-10.214 4.572-10.214 10.213 0 5.64 4.573 10.213 10.213 10.213Z" />
	<path fill="#4747FD"
		d="M20.952 54.691c5.643 0 10.218-4.574 10.218-10.218 0-5.643-4.575-10.218-10.218-10.218-5.644 0-10.218 4.575-10.218 10.218 0 5.644 4.575 10.218 10.218 10.218Z" />
	<path fill="#4848FD"
		d="M21.03 54.776c5.647 0 10.224-4.578 10.224-10.224S26.677 34.33 21.031 34.33c-5.646 0-10.223 4.577-10.223 10.223 0 5.647 4.577 10.224 10.223 10.224Z" />
	<path fill="#4848FD"
		d="M21.11 54.86c5.65 0 10.229-4.58 10.229-10.228 0-5.65-4.58-10.228-10.229-10.228-5.649 0-10.228 4.579-10.228 10.228S15.462 54.86 21.11 54.86Z" />
	<path fill="#4848FD"
		d="M21.19 54.944c5.651 0 10.233-4.581 10.233-10.233S26.84 34.478 21.19 34.478c-5.652 0-10.234 4.581-10.234 10.233s4.582 10.233 10.233 10.233Z" />
	<path fill="#4848FD"
		d="M21.269 55.029c5.654 0 10.238-4.584 10.238-10.239 0-5.654-4.584-10.238-10.238-10.238-5.655 0-10.238 4.584-10.238 10.238 0 5.655 4.583 10.239 10.238 10.239Z" />
	<path fill="#4848FD"
		d="M21.348 55.117c5.657 0 10.243-4.586 10.243-10.243s-4.586-10.243-10.243-10.243-10.243 4.586-10.243 10.243 4.586 10.243 10.243 10.243Z" />
	<path fill="#4848FE"
		d="M21.427 55.202c5.66 0 10.248-4.589 10.248-10.248 0-5.66-4.588-10.248-10.248-10.248-5.66 0-10.248 4.588-10.248 10.248 0 5.66 4.588 10.248 10.248 10.248Z" />
	<path fill="#4848FE"
		d="M21.507 55.286c5.662 0 10.253-4.59 10.253-10.253S27.17 34.78 21.507 34.78s-10.253 4.59-10.253 10.253c0 5.662 4.59 10.253 10.253 10.253Z" />
	<path fill="#4848FE"
		d="M21.586 55.37c5.665 0 10.258-4.592 10.258-10.258 0-5.665-4.593-10.258-10.258-10.258-5.666 0-10.258 4.593-10.258 10.258 0 5.666 4.592 10.258 10.258 10.258Z" />
	<path fill="#4848FE"
		d="M21.665 55.454c5.668 0 10.263-4.595 10.263-10.263s-4.595-10.263-10.263-10.263-10.263 4.595-10.263 10.263 4.595 10.263 10.263 10.263Z" />
	<path fill="#4848FE"
		d="M21.744 55.538c5.67 0 10.268-4.597 10.268-10.267 0-5.671-4.597-10.268-10.268-10.268-5.67 0-10.268 4.597-10.268 10.268 0 5.67 4.597 10.267 10.268 10.267Z" />
	<path fill="#4848FE"
		d="M21.823 55.623c5.674 0 10.273-4.6 10.273-10.273 0-5.674-4.6-10.273-10.273-10.273S11.55 39.677 11.55 45.35s4.6 10.273 10.273 10.273Z" />
	<path fill="#4848FE"
		d="M21.903 55.707c5.676 0 10.278-4.602 10.278-10.278s-4.602-10.278-10.278-10.278-10.278 4.602-10.278 10.278 4.602 10.278 10.278 10.278Z" />
	<path fill="#4848FE"
		d="M21.982 55.791c5.679 0 10.283-4.604 10.283-10.283 0-5.679-4.604-10.282-10.283-10.282-5.68 0-10.283 4.603-10.283 10.282 0 5.68 4.604 10.283 10.283 10.283Z" />
	<path fill="#4848FE"
		d="M22.061 55.88c5.685 0 10.293-4.608 10.293-10.292 0-5.685-4.608-10.293-10.293-10.293-5.684 0-10.292 4.608-10.292 10.293 0 5.684 4.608 10.292 10.292 10.292Z" />
	<path fill="#4848FE"
		d="M22.14 55.965c5.688 0 10.298-4.61 10.298-10.298 0-5.687-4.61-10.298-10.297-10.298-5.688 0-10.298 4.61-10.298 10.298 0 5.687 4.61 10.297 10.298 10.297Z" />
	<path fill="#4848FE"
		d="M22.22 56.049c5.69 0 10.302-4.613 10.302-10.303S27.91 35.444 22.22 35.444c-5.69 0-10.303 4.612-10.303 10.302 0 5.69 4.613 10.303 10.303 10.303Z" />
	<path fill="#4848FE"
		d="M22.3 56.138c5.692 0 10.307-4.615 10.307-10.308 0-5.692-4.615-10.307-10.308-10.307-5.692 0-10.307 4.615-10.307 10.307 0 5.693 4.614 10.308 10.307 10.308Z" />
	<path fill="#4848FE"
		d="M22.378 56.222c5.695 0 10.313-4.617 10.313-10.312 0-5.696-4.618-10.313-10.313-10.313S12.066 40.214 12.066 45.91c0 5.695 4.617 10.312 10.312 10.312Z" />
	<path fill="#4848FE"
		d="M22.457 56.306c5.699 0 10.318-4.619 10.318-10.317s-4.62-10.317-10.317-10.317c-5.699 0-10.318 4.619-10.318 10.317s4.62 10.317 10.317 10.317Z" />
	<path fill="#4848FE"
		d="M22.537 56.39c5.7 0 10.322-4.621 10.322-10.322 0-5.7-4.621-10.322-10.322-10.322-5.7 0-10.322 4.621-10.322 10.322 0 5.7 4.621 10.322 10.322 10.322Z" />
	<path fill="#4848FE"
		d="M22.616 56.475c5.704 0 10.327-4.624 10.327-10.328 0-5.703-4.623-10.327-10.327-10.327-5.703 0-10.327 4.624-10.327 10.327 0 5.704 4.624 10.328 10.327 10.328Z" />
	<path fill="#4848FE"
		d="M22.695 56.559c5.707 0 10.333-4.626 10.333-10.332 0-5.707-4.626-10.333-10.333-10.333-5.706 0-10.332 4.626-10.332 10.333 0 5.706 4.626 10.332 10.332 10.332Z" />
	<path fill="#4949FE"
		d="M22.774 56.643c5.71 0 10.338-4.628 10.338-10.337 0-5.71-4.629-10.337-10.338-10.337s-10.337 4.628-10.337 10.337 4.628 10.337 10.337 10.337Z" />
	<path fill="#4949FE"
		d="M22.854 56.727c5.712 0 10.342-4.63 10.342-10.342 0-5.712-4.63-10.342-10.342-10.342-5.712 0-10.342 4.63-10.342 10.342 0 5.712 4.63 10.342 10.342 10.342Z" />
	<path fill="#4949FE"
		d="M22.933 56.812c5.715 0 10.347-4.633 10.347-10.348 0-5.714-4.632-10.347-10.347-10.347S12.586 40.75 12.586 46.464c0 5.715 4.632 10.348 10.347 10.348Z" />
	<path fill="#4949FE"
		d="M23.012 56.896c5.718 0 10.352-4.635 10.352-10.352 0-5.718-4.634-10.352-10.352-10.352-5.717 0-10.352 4.634-10.352 10.352 0 5.717 4.635 10.352 10.352 10.352Z" />
	<path fill="#4949FE"
		d="M23.092 56.98c5.72 0 10.357-4.637 10.357-10.357s-4.637-10.357-10.357-10.357-10.357 4.637-10.357 10.357S17.372 56.98 23.092 56.98Z" />
	<path fill="#4949FE"
		d="M23.17 57.064c5.723 0 10.363-4.64 10.363-10.362 0-5.723-4.64-10.362-10.362-10.362-5.723 0-10.362 4.64-10.362 10.362 0 5.723 4.639 10.362 10.362 10.362Z" />
	<path fill="#4949FE"
		d="M23.25 57.153c5.725 0 10.367-4.641 10.367-10.367 0-5.725-4.642-10.367-10.367-10.367-5.726 0-10.367 4.642-10.367 10.367 0 5.726 4.642 10.367 10.367 10.367Z" />
	<path fill="#4949FE"
		d="M23.33 57.237c5.727 0 10.371-4.643 10.371-10.372 0-5.728-4.644-10.371-10.372-10.371s-10.372 4.643-10.372 10.371c0 5.729 4.644 10.372 10.372 10.372Z" />
	<path fill="#4949FE"
		d="M23.409 57.327c5.733 0 10.381-4.649 10.381-10.382 0-5.734-4.648-10.382-10.381-10.382-5.734 0-10.382 4.648-10.382 10.382 0 5.733 4.648 10.382 10.382 10.382Z" />
	<path fill="#4949FE"
		d="M23.488 57.41c5.736 0 10.386-4.65 10.386-10.386 0-5.736-4.65-10.387-10.387-10.387-5.736 0-10.386 4.65-10.386 10.387 0 5.736 4.65 10.387 10.386 10.387Z" />
	<path fill="#4949FE"
		d="M23.567 57.495c5.74 0 10.392-4.652 10.392-10.392 0-5.739-4.653-10.391-10.392-10.391-5.74 0-10.392 4.652-10.392 10.391 0 5.74 4.653 10.392 10.392 10.392Z" />
	<path fill="#4949FE"
		d="M23.646 57.58c5.742 0 10.397-4.655 10.397-10.397s-4.655-10.397-10.397-10.397S13.25 41.441 13.25 47.183s4.654 10.396 10.396 10.396Z" />
	<path fill="#4949FE"
		d="M23.725 57.663c5.745 0 10.402-4.657 10.402-10.401 0-5.745-4.657-10.402-10.402-10.402-5.744 0-10.401 4.657-10.401 10.402 0 5.744 4.657 10.401 10.401 10.401Z" />
	<path fill="#4949FE"
		d="M23.805 57.748c5.747 0 10.406-4.66 10.406-10.407s-4.659-10.406-10.406-10.406c-5.748 0-10.407 4.659-10.407 10.406 0 5.748 4.66 10.407 10.407 10.407Z" />
	<path fill="#4949FE"
		d="M23.884 57.832c5.75 0 10.411-4.662 10.411-10.412 0-5.75-4.661-10.411-10.411-10.411S13.472 41.67 13.472 47.42s4.662 10.412 10.412 10.412Z" />
	<path fill="#4949FE"
		d="M23.963 57.916c5.753 0 10.417-4.663 10.417-10.416s-4.664-10.417-10.417-10.417S13.547 41.747 13.547 47.5c0 5.752 4.663 10.416 10.416 10.416Z" />
	<path fill="#4949FE"
		d="M24.043 58c5.755 0 10.42-4.666 10.42-10.421 0-5.756-4.665-10.422-10.42-10.422-5.756 0-10.422 4.666-10.422 10.422C13.621 53.334 18.287 58 24.042 58Z" />
	<path fill="#4949FF"
		d="M24.122 58.09c5.758 0 10.426-4.669 10.426-10.427S29.88 37.237 24.122 37.237c-5.759 0-10.427 4.668-10.427 10.426s4.668 10.426 10.427 10.426Z" />
	<path fill="#4949FF"
		d="M24.201 58.173c5.761 0 10.431-4.67 10.431-10.43 0-5.762-4.67-10.432-10.43-10.432-5.762 0-10.432 4.67-10.432 10.431 0 5.761 4.67 10.431 10.431 10.431Z" />
	<path fill="#4949FF"
		d="M24.28 58.258c5.764 0 10.437-4.673 10.437-10.436 0-5.764-4.673-10.437-10.437-10.437-5.764 0-10.436 4.673-10.436 10.437 0 5.763 4.673 10.436 10.436 10.436Z" />
	<path fill="#4949FF"
		d="M24.36 58.342c5.766 0 10.44-4.675 10.44-10.441 0-5.767-4.674-10.441-10.44-10.441-5.767 0-10.441 4.674-10.441 10.44 0 5.767 4.674 10.442 10.44 10.442Z" />
	<path fill="#4949FF"
		d="M24.439 58.426c5.769 0 10.446-4.677 10.446-10.446 0-5.77-4.677-10.446-10.446-10.446-5.77 0-10.447 4.677-10.447 10.446 0 5.77 4.677 10.446 10.447 10.446Z" />
	<path fill="#4A4AFF"
		d="M24.518 58.51c5.772 0 10.451-4.679 10.451-10.45 0-5.773-4.679-10.452-10.451-10.452s-10.451 4.68-10.451 10.451c0 5.772 4.679 10.451 10.451 10.451Z" />
	<path fill="#4A4AFF"
		d="M24.597 58.595c5.775 0 10.456-4.682 10.456-10.456 0-5.775-4.681-10.457-10.456-10.457-5.774 0-10.456 4.682-10.456 10.457 0 5.774 4.682 10.456 10.456 10.456Z" />
	<path fill="#4A4AFF"
		d="M24.676 58.679c5.778 0 10.461-4.684 10.461-10.461 0-5.778-4.683-10.461-10.46-10.461-5.778 0-10.462 4.683-10.462 10.46 0 5.778 4.684 10.462 10.461 10.462Z" />
	<path fill="#4A4AFF"
		d="M24.756 58.763c5.78 0 10.466-4.686 10.466-10.466 0-5.78-4.686-10.466-10.466-10.466-5.78 0-10.466 4.686-10.466 10.466 0 5.78 4.686 10.466 10.466 10.466Z" />
	<path fill="#4A4AFF"
		d="M24.835 58.852c5.786 0 10.476-4.69 10.476-10.476 0-5.785-4.69-10.476-10.476-10.476-5.786 0-10.476 4.69-10.476 10.476 0 5.786 4.69 10.476 10.476 10.476Z" />
	<path fill="#4A4AFF"
		d="M24.914 58.936c5.789 0 10.481-4.692 10.481-10.48 0-5.789-4.692-10.481-10.48-10.481-5.79 0-10.482 4.692-10.482 10.48 0 5.789 4.693 10.481 10.481 10.481Z" />
	<path fill="#4A4AFF"
		d="M24.993 59.02c5.792 0 10.486-4.694 10.486-10.485 0-5.791-4.694-10.486-10.486-10.486-5.79 0-10.485 4.695-10.485 10.486 0 5.79 4.694 10.486 10.485 10.486Z" />
	<path fill="#4A4AFF"
		d="M25.073 59.11c5.794 0 10.49-4.697 10.49-10.491s-4.696-10.49-10.49-10.49c-5.794 0-10.491 4.696-10.491 10.49 0 5.794 4.697 10.49 10.49 10.49Z" />
	<path fill="#4A4AFF"
		d="M25.152 59.194c5.796 0 10.496-4.7 10.496-10.496s-4.7-10.495-10.496-10.495c-5.797 0-10.496 4.699-10.496 10.495 0 5.797 4.7 10.496 10.496 10.496Z" />
	<path fill="#4A4AFF"
		d="M25.231 59.278c5.8 0 10.5-4.701 10.5-10.5 0-5.8-4.7-10.501-10.5-10.501s-10.5 4.701-10.5 10.5c0 5.8 4.7 10.501 10.5 10.501Z" />
	<path fill="#4A4AFF"
		d="M25.31 59.362c5.803 0 10.506-4.703 10.506-10.505 0-5.802-4.703-10.506-10.506-10.506-5.802 0-10.505 4.704-10.505 10.506 0 5.802 4.703 10.505 10.506 10.505Z" />
	<path fill="#4A4AFF"
		d="M25.39 59.446c5.805 0 10.51-4.705 10.51-10.51s-4.705-10.51-10.51-10.51-10.51 4.705-10.51 10.51 4.705 10.51 10.51 10.51Z" />
	<path fill="#4A4BFF"
		d="M25.504 59.273c5.807 0 10.515-4.708 10.515-10.515 0-5.808-4.708-10.516-10.515-10.516-5.808 0-10.516 4.708-10.516 10.516 0 5.807 4.708 10.515 10.516 10.515Z" />
	<path fill="#494CFE"
		d="M25.613 59.1c5.81 0 10.52-4.71 10.52-10.52 0-5.811-4.71-10.521-10.52-10.521s-10.521 4.71-10.521 10.52 4.71 10.52 10.52 10.52Z" />
	<path fill="#494DFE"
		d="M25.727 58.926c5.813 0 10.525-4.712 10.525-10.525 0-5.813-4.712-10.525-10.525-10.525-5.813 0-10.526 4.712-10.526 10.525 0 5.813 4.713 10.525 10.526 10.525Z" />
	<path fill="#494EFD"
		d="M25.835 58.753c5.816 0 10.53-4.715 10.53-10.53 0-5.816-4.714-10.53-10.53-10.53-5.815 0-10.53 4.714-10.53 10.53 0 5.816 4.715 10.53 10.53 10.53Z" />
	<path fill="#484FFD"
		d="M25.95 58.58c5.818 0 10.534-4.717 10.534-10.536 0-5.818-4.716-10.535-10.535-10.535-5.818 0-10.535 4.717-10.535 10.535 0 5.819 4.717 10.536 10.535 10.536Z" />
	<path fill="#484FFC"
		d="M26.064 58.406c5.82 0 10.54-4.719 10.54-10.54 0-5.821-4.72-10.54-10.54-10.54-5.822 0-10.54 4.719-10.54 10.54 0 5.821 4.718 10.54 10.54 10.54Z" />
	<path fill="#4750FC"
		d="M26.172 58.233c5.824 0 10.546-4.721 10.546-10.545s-4.722-10.545-10.546-10.545c-5.823 0-10.545 4.72-10.545 10.545 0 5.824 4.722 10.545 10.545 10.545Z" />
	<path fill="#4751FB"
		d="M26.286 58.06c5.827 0 10.55-4.724 10.55-10.55 0-5.827-4.723-10.55-10.55-10.55-5.827 0-10.55 4.723-10.55 10.55 0 5.826 4.723 10.55 10.55 10.55Z" />
	<path fill="#4752FB"
		d="M26.395 57.886c5.83 0 10.555-4.725 10.555-10.555s-4.725-10.555-10.555-10.555S15.84 41.502 15.84 47.331c0 5.83 4.726 10.555 10.555 10.555Z" />
	<path fill="#4653FA"
		d="M26.509 57.713c5.832 0 10.56-4.728 10.56-10.56 0-5.832-4.728-10.56-10.56-10.56-5.832 0-10.56 4.728-10.56 10.56 0 5.832 4.728 10.56 10.56 10.56Z" />
	<path fill="#4654FA"
		d="M26.618 57.544c5.838 0 10.57-4.732 10.57-10.57 0-5.837-4.732-10.57-10.57-10.57s-10.57 4.733-10.57 10.57c0 5.838 4.732 10.57 10.57 10.57Z" />
	<path fill="#4655FA"
		d="M26.732 57.371c5.84 0 10.575-4.735 10.575-10.575 0-5.84-4.735-10.575-10.575-10.575-5.84 0-10.575 4.735-10.575 10.575 0 5.84 4.735 10.575 10.575 10.575Z" />
	<path fill="#4556F9"
		d="M26.846 57.198c5.843 0 10.58-4.737 10.58-10.58s-4.737-10.58-10.58-10.58-10.58 4.737-10.58 10.58 4.737 10.58 10.58 10.58Z" />
	<path fill="#4557F9"
		d="M26.955 57.024c5.846 0 10.584-4.739 10.584-10.584 0-5.846-4.738-10.585-10.584-10.585-5.846 0-10.585 4.739-10.585 10.585 0 5.845 4.739 10.584 10.585 10.584Z" />
	<path fill="#4458F8"
		d="M27.069 56.851c5.848 0 10.59-4.741 10.59-10.59 0-5.848-4.742-10.59-10.59-10.59-5.849 0-10.59 4.742-10.59 10.59 0 5.849 4.741 10.59 10.59 10.59Z" />
	<path fill="#4458F8"
		d="M27.178 56.678c5.851 0 10.595-4.744 10.595-10.595 0-5.851-4.744-10.595-10.595-10.595-5.852 0-10.595 4.744-10.595 10.595 0 5.851 4.743 10.595 10.595 10.595Z" />
	<path fill="#4459F7"
		d="M27.292 56.504c5.854 0 10.6-4.745 10.6-10.6 0-5.853-4.746-10.6-10.6-10.6-5.855 0-10.6 4.747-10.6 10.6 0 5.855 4.745 10.6 10.6 10.6Z" />
	<path fill="#435AF7"
		d="M27.4 56.331c5.858 0 10.605-4.748 10.605-10.605 0-5.856-4.747-10.604-10.604-10.604-5.857 0-10.605 4.748-10.605 10.605 0 5.856 4.748 10.604 10.605 10.604Z" />
	<path fill="#435BF6"
		d="M27.515 56.158c5.86 0 10.61-4.75 10.61-10.61 0-5.86-4.75-10.61-10.61-10.61-5.86 0-10.61 4.75-10.61 10.61 0 5.86 4.75 10.61 10.61 10.61Z" />
	<path fill="#435CF6"
		d="M27.629 55.984c5.862 0 10.614-4.752 10.614-10.614 0-5.863-4.752-10.615-10.614-10.615-5.863 0-10.615 4.752-10.615 10.615 0 5.862 4.753 10.614 10.615 10.614Z" />
	<path fill="#425DF5"
		d="M27.738 55.81c5.865 0 10.62-4.754 10.62-10.619s-4.755-10.62-10.62-10.62c-5.865 0-10.62 4.755-10.62 10.62 0 5.865 4.755 10.62 10.62 10.62Z" />
	<path fill="#425EF5"
		d="M27.851 55.638c5.868 0 10.625-4.757 10.625-10.625S33.719 34.39 27.85 34.39c-5.867 0-10.624 4.756-10.624 10.624s4.756 10.625 10.624 10.625Z" />
	<path fill="#425FF4"
		d="M27.96 55.464c5.87 0 10.63-4.759 10.63-10.63 0-5.87-4.76-10.629-10.63-10.629-5.87 0-10.63 4.76-10.63 10.63 0 5.87 4.76 10.63 10.63 10.63Z" />
	<path fill="#4160F4"
		d="M28.074 55.29c5.873 0 10.635-4.76 10.635-10.634 0-5.873-4.762-10.634-10.635-10.634S17.44 38.783 17.44 44.656s4.76 10.635 10.634 10.635Z" />
	<path fill="#4161F4"
		d="M28.183 55.117c5.876 0 10.64-4.763 10.64-10.639 0-5.876-4.764-10.64-10.64-10.64s-10.64 4.764-10.64 10.64 4.764 10.64 10.64 10.64Z" />
	<path fill="#4061F3"
		d="M28.297 54.944c5.879 0 10.645-4.765 10.645-10.644 0-5.879-4.766-10.644-10.645-10.644-5.878 0-10.644 4.765-10.644 10.644 0 5.879 4.766 10.644 10.644 10.644Z" />
	<path fill="#4062F3"
		d="M28.41 54.77c5.882 0 10.65-4.767 10.65-10.649 0-5.88-4.768-10.649-10.65-10.649-5.88 0-10.648 4.768-10.648 10.65 0 5.88 4.767 10.649 10.649 10.649Z" />
	<path fill="#4063F2"
		d="M28.52 54.597c5.884 0 10.654-4.77 10.654-10.654S34.404 33.29 28.52 33.29s-10.654 4.77-10.654 10.654 4.77 10.654 10.654 10.654Z" />
	<path fill="#3F64F2"
		d="M28.634 54.429c5.89 0 10.664-4.775 10.664-10.664 0-5.89-4.774-10.664-10.664-10.664S17.97 37.875 17.97 43.765s4.775 10.664 10.664 10.664Z" />
	<path fill="#3F65F1"
		d="M28.743 54.256c5.893 0 10.67-4.777 10.67-10.67 0-5.892-4.777-10.668-10.67-10.668-5.892 0-10.669 4.776-10.669 10.669 0 5.892 4.777 10.669 10.67 10.669Z" />
	<path fill="#3F66F1"
		d="M28.857 54.082c5.895 0 10.674-4.779 10.674-10.674s-4.78-10.674-10.674-10.674c-5.895 0-10.674 4.78-10.674 10.674 0 5.895 4.779 10.674 10.674 10.674Z" />
	<path fill="#3E67F0"
		d="M28.966 53.909c5.898 0 10.679-4.781 10.679-10.679 0-5.898-4.781-10.679-10.68-10.679-5.897 0-10.678 4.781-10.678 10.679 0 5.898 4.781 10.679 10.679 10.679Z" />
	<path fill="#3E68F0"
		d="M29.08 53.736c5.9 0 10.684-4.784 10.684-10.684 0-5.901-4.784-10.684-10.684-10.684-5.9 0-10.684 4.783-10.684 10.684 0 5.9 4.783 10.684 10.684 10.684Z" />
	<path fill="#3D69EF"
		d="M29.194 53.562c5.903 0 10.689-4.785 10.689-10.689 0-5.903-4.786-10.688-10.69-10.688-5.903 0-10.688 4.785-10.688 10.688 0 5.904 4.785 10.69 10.689 10.69Z" />
	<path fill="#3D6AEF"
		d="M29.303 53.389c5.906 0 10.693-4.788 10.693-10.694 0-5.906-4.787-10.694-10.693-10.694S18.609 36.79 18.609 42.695c0 5.906 4.788 10.694 10.694 10.694Z" />
	<path fill="#3D6AEF"
		d="M29.416 53.215c5.91 0 10.7-4.79 10.7-10.698 0-5.909-4.79-10.699-10.7-10.699-5.908 0-10.698 4.79-10.698 10.699 0 5.908 4.79 10.698 10.698 10.698Z" />
	<path fill="#3C6BEE"
		d="M29.526 53.042c5.911 0 10.703-4.792 10.703-10.703 0-5.912-4.792-10.704-10.703-10.704-5.912 0-10.704 4.792-10.704 10.704 0 5.911 4.792 10.703 10.704 10.703Z" />
	<path fill="#3C6CEE"
		d="M29.64 52.869c5.914 0 10.708-4.795 10.708-10.709S35.554 31.451 29.64 31.451c-5.915 0-10.71 4.795-10.71 10.71 0 5.913 4.795 10.708 10.71 10.708Z" />
	<path fill="#3C6DED"
		d="M29.748 52.695c5.918 0 10.714-4.796 10.714-10.713 0-5.917-4.797-10.714-10.714-10.714-5.916 0-10.713 4.797-10.713 10.714 0 5.917 4.797 10.713 10.713 10.713Z" />
	<path fill="#3B6EED"
		d="M29.862 52.522c5.92 0 10.719-4.799 10.719-10.718 0-5.92-4.8-10.719-10.719-10.719-5.92 0-10.718 4.799-10.718 10.718 0 5.92 4.798 10.72 10.718 10.72Z" />
	<path fill="#3B6FEC"
		d="M29.977 52.349c5.922 0 10.723-4.801 10.723-10.724 0-5.922-4.801-10.723-10.724-10.723-5.922 0-10.723 4.8-10.723 10.723 0 5.923 4.801 10.724 10.724 10.724Z" />
	<path fill="#3B70EC"
		d="M30.085 52.175c5.926 0 10.729-4.803 10.729-10.728S36.01 30.718 30.085 30.718c-5.925 0-10.728 4.804-10.728 10.729 0 5.925 4.803 10.728 10.728 10.728Z" />
	<path fill="#3A71EB"
		d="M30.2 52.002c5.927 0 10.733-4.806 10.733-10.733 0-5.928-4.806-10.734-10.733-10.734-5.928 0-10.734 4.806-10.734 10.734 0 5.927 4.806 10.733 10.733 10.733Z" />
	<path fill="#3A72EB"
		d="M30.308 51.829c5.93 0 10.739-4.808 10.739-10.739 0-5.93-4.808-10.738-10.739-10.738-5.93 0-10.738 4.808-10.738 10.738s4.808 10.74 10.738 10.74Z" />
	<path fill="#3973EA"
		d="M30.422 51.655c5.933 0 10.743-4.81 10.743-10.743 0-5.933-4.81-10.743-10.743-10.743-5.933 0-10.743 4.81-10.743 10.743 0 5.933 4.81 10.743 10.743 10.743Z" />
	<path fill="#3973EA"
		d="M30.531 51.482c5.936 0 10.748-4.812 10.748-10.748 0-5.937-4.812-10.749-10.748-10.749-5.936 0-10.748 4.812-10.748 10.748 0 5.937 4.812 10.749 10.748 10.749Z" />
	<path fill="#3974E9"
		d="M30.645 51.313c5.942 0 10.758-4.816 10.758-10.758 0-5.941-4.816-10.758-10.758-10.758-5.942 0-10.758 4.817-10.758 10.758 0 5.942 4.816 10.758 10.758 10.758Z" />
	<path fill="#3875E9"
		d="M30.759 51.14c5.944 0 10.763-4.819 10.763-10.763S36.703 29.614 30.76 29.614s-10.763 4.819-10.763 10.763S24.815 51.14 30.759 51.14Z" />
	<path fill="#3876E9"
		d="M30.868 50.967c5.947 0 10.768-4.821 10.768-10.768 0-5.947-4.821-10.768-10.768-10.768-5.947 0-10.768 4.82-10.768 10.768 0 5.947 4.82 10.768 10.768 10.768Z" />
	<path fill="#3877E8"
		d="M30.982 50.793c5.95 0 10.773-4.823 10.773-10.773 0-5.95-4.823-10.773-10.773-10.773-5.95 0-10.773 4.824-10.773 10.773 0 5.95 4.823 10.773 10.773 10.773Z" />
	<path fill="#3778E8"
		d="M31.09 50.62c5.953 0 10.779-4.825 10.779-10.778S37.043 29.064 31.09 29.064s-10.778 4.825-10.778 10.778S25.138 50.62 31.09 50.62Z" />
	<path fill="#3779E7"
		d="M31.205 50.447c5.955 0 10.783-4.828 10.783-10.783 0-5.956-4.828-10.783-10.783-10.783-5.955 0-10.783 4.827-10.783 10.783 0 5.955 4.828 10.783 10.783 10.783Z" />
	<path fill="#367AE7"
		d="M31.314 50.273c5.958 0 10.788-4.83 10.788-10.788s-4.83-10.788-10.788-10.788-10.788 4.83-10.788 10.788 4.83 10.788 10.788 10.788Z" />
	<path fill="#367BE6"
		d="M31.428 50.1c5.96 0 10.793-4.832 10.793-10.793 0-5.96-4.833-10.793-10.793-10.793-5.961 0-10.793 4.832-10.793 10.793 0 5.96 4.832 10.793 10.793 10.793Z" />
	<path fill="#367CE6"
		d="M31.541 49.927c5.964 0 10.798-4.835 10.798-10.798 0-5.964-4.834-10.798-10.797-10.798-5.964 0-10.798 4.834-10.798 10.798 0 5.963 4.834 10.798 10.797 10.798Z" />
	<path fill="#357CE5"
		d="M31.65 49.753c5.967 0 10.803-4.836 10.803-10.803 0-5.966-4.836-10.802-10.802-10.802-5.966 0-10.803 4.836-10.803 10.802 0 5.967 4.837 10.803 10.803 10.803Z" />
	<path fill="#357DE5"
		d="M31.764 49.58c5.97 0 10.808-4.839 10.808-10.808 0-5.969-4.839-10.807-10.808-10.807-5.969 0-10.808 4.838-10.808 10.807 0 5.97 4.84 10.808 10.808 10.808Z" />
	<path fill="#357EE4"
		d="M31.873 49.407c5.972 0 10.813-4.841 10.813-10.813S37.846 27.78 31.873 27.78c-5.971 0-10.812 4.841-10.812 10.813 0 5.971 4.84 10.813 10.813 10.813Z" />
	<path fill="#347FE4"
		d="M31.987 49.233c5.975 0 10.818-4.843 10.818-10.817 0-5.975-4.843-10.818-10.818-10.818-5.974 0-10.817 4.843-10.817 10.818 0 5.974 4.843 10.817 10.817 10.817Z" />
	<path fill="#3480E4"
		d="M32.096 49.06c5.977 0 10.823-4.846 10.823-10.823s-4.846-10.822-10.823-10.822-10.822 4.845-10.822 10.822c0 5.977 4.845 10.823 10.822 10.823Z" />
	<path fill="#3481E3"
		d="M32.21 48.886c5.98 0 10.828-4.847 10.828-10.827 0-5.98-4.848-10.828-10.828-10.828-5.98 0-10.827 4.848-10.827 10.828 0 5.98 4.848 10.827 10.827 10.827Z" />
	<path fill="#3382E3"
		d="M32.324 48.713c5.983 0 10.833-4.85 10.833-10.832 0-5.983-4.85-10.833-10.833-10.833-5.983 0-10.832 4.85-10.832 10.833 0 5.982 4.85 10.832 10.832 10.832Z" />
	<path fill="#3383E2"
		d="M32.433 48.54c5.986 0 10.838-4.852 10.838-10.838 0-5.985-4.852-10.837-10.838-10.837-5.985 0-10.837 4.852-10.837 10.837 0 5.986 4.852 10.838 10.837 10.838Z" />
	<path fill="#3284E2"
		d="M32.547 48.366c5.988 0 10.842-4.854 10.842-10.842S38.535 26.68 32.547 26.68s-10.842 4.855-10.842 10.843c0 5.988 4.854 10.842 10.842 10.842Z" />
	<path fill="#3285E1"
		d="M32.656 48.198c5.994 0 10.852-4.859 10.852-10.852 0-5.994-4.858-10.853-10.852-10.853-5.993 0-10.852 4.86-10.852 10.853 0 5.993 4.859 10.852 10.852 10.852Z" />
	<path fill="#3285E1"
		d="M32.77 48.025c5.996 0 10.857-4.861 10.857-10.858 0-5.996-4.86-10.857-10.857-10.857-5.996 0-10.857 4.861-10.857 10.857 0 5.997 4.86 10.858 10.857 10.858Z" />
	<path fill="#3186E0"
		d="M32.88 47.846c5.998 0 10.861-4.863 10.861-10.862S38.878 26.122 32.88 26.122s-10.862 4.863-10.862 10.862c0 6 4.863 10.862 10.862 10.862Z" />
	<path fill="#3187E0"
		d="M32.993 47.673c6.002 0 10.867-4.866 10.867-10.867 0-6.002-4.865-10.867-10.867-10.867-6.002 0-10.867 4.865-10.867 10.867 0 6.002 4.865 10.867 10.867 10.867Z" />
	<path fill="#3188DF"
		d="M33.106 47.5c6.005 0 10.873-4.868 10.873-10.873 0-6.004-4.868-10.872-10.873-10.872-6.004 0-10.872 4.868-10.872 10.872 0 6.005 4.868 10.873 10.872 10.873Z" />
	<path fill="#3089DF"
		d="M33.216 47.326c6.007 0 10.877-4.87 10.877-10.877 0-6.007-4.87-10.877-10.877-10.877-6.008 0-10.877 4.87-10.877 10.877 0 6.007 4.87 10.877 10.877 10.877Z" />
	<path fill="#308ADF"
		d="M33.33 47.153c6.01 0 10.882-4.872 10.882-10.882S39.34 25.389 33.33 25.389 22.448 30.26 22.448 36.27 27.32 47.153 33.33 47.153Z" />
	<path fill="#2F8BDE"
		d="M33.439 46.98c6.012 0 10.887-4.875 10.887-10.887 0-6.013-4.875-10.887-10.887-10.887-6.013 0-10.887 4.874-10.887 10.887 0 6.012 4.874 10.886 10.887 10.886Z" />
	<path fill="#2F8CDE"
		d="M33.553 46.806c6.015 0 10.892-4.876 10.892-10.892 0-6.015-4.877-10.892-10.892-10.892-6.016 0-10.892 4.877-10.892 10.892 0 6.016 4.876 10.892 10.892 10.892Z" />
	<path fill="#2F8DDD"
		d="M33.661 46.633c6.019 0 10.897-4.879 10.897-10.897 0-6.018-4.878-10.897-10.897-10.897-6.018 0-10.896 4.879-10.896 10.897 0 6.018 4.878 10.897 10.896 10.897Z" />
	<path fill="#2E8EDD"
		d="M33.776 46.46c6.02 0 10.901-4.882 10.901-10.902 0-6.021-4.88-10.902-10.901-10.902s-10.902 4.88-10.902 10.902c0 6.02 4.88 10.901 10.902 10.901Z" />
	<path fill="#2E8EDC"
		d="M33.89 46.286c6.023 0 10.906-4.883 10.906-10.907 0-6.023-4.883-10.907-10.907-10.907-6.023 0-10.907 4.883-10.907 10.907s4.884 10.907 10.907 10.907Z" />
	<path fill="#2E8FDC"
		d="M33.998 46.113c6.027 0 10.912-4.886 10.912-10.912 0-6.027-4.885-10.912-10.912-10.912-6.026 0-10.912 4.885-10.912 10.912 0 6.026 4.886 10.912 10.912 10.912Z" />
	<path fill="#2D90DB"
		d="M34.112 45.94c6.03 0 10.917-4.888 10.917-10.917 0-6.03-4.888-10.917-10.917-10.917s-10.916 4.887-10.916 10.916c0 6.03 4.887 10.917 10.916 10.917Z" />
	<path fill="#2D91DB"
		d="M34.221 45.766c6.032 0 10.922-4.89 10.922-10.922 0-6.032-4.89-10.921-10.922-10.921-6.032 0-10.921 4.89-10.921 10.921 0 6.032 4.89 10.922 10.921 10.922Z" />
	<path fill="#2D92DA"
		d="M34.335 45.593c6.035 0 10.927-4.892 10.927-10.927 0-6.034-4.892-10.926-10.927-10.926-6.035 0-10.927 4.892-10.927 10.926 0 6.035 4.892 10.927 10.927 10.927Z" />
	<path fill="#2C93DA"
		d="M34.444 45.42c6.038 0 10.932-4.895 10.932-10.932 0-6.038-4.894-10.932-10.932-10.932-6.037 0-10.931 4.894-10.931 10.932 0 6.037 4.894 10.931 10.931 10.931Z" />
	<path fill="#2C94D9"
		d="M34.558 45.246c6.04 0 10.937-4.897 10.937-10.937 0-6.04-4.897-10.936-10.937-10.936-6.04 0-10.936 4.896-10.936 10.936s4.896 10.937 10.936 10.937Z" />
	<path fill="#2B95D9"
		d="M34.672 45.077c6.046 0 10.946-4.9 10.946-10.946 0-6.046-4.9-10.946-10.946-10.946-6.045 0-10.946 4.9-10.946 10.946 0 6.045 4.9 10.946 10.946 10.946Z" />
	<path fill="#2B96D9"
		d="M34.78 44.904c6.049 0 10.952-4.903 10.952-10.951C45.732 27.905 40.83 23 34.781 23c-6.048 0-10.952 4.904-10.952 10.952s4.904 10.951 10.952 10.951Z" />
	<path fill="#2B97D8"
		d="M34.895 44.73c6.05 0 10.956-4.904 10.956-10.956 0-6.05-4.905-10.956-10.956-10.956-6.051 0-10.957 4.905-10.957 10.956 0 6.051 4.906 10.957 10.957 10.957Z" />
	<path fill="#2A97D8"
		d="M35.004 44.557c6.053 0 10.961-4.907 10.961-10.96 0-6.055-4.908-10.962-10.961-10.962-6.054 0-10.961 4.907-10.961 10.961s4.907 10.961 10.96 10.961Z" />
	<path fill="#2A98D7"
		d="M35.118 44.384c6.056 0 10.966-4.91 10.966-10.966 0-6.057-4.91-10.966-10.966-10.966-6.057 0-10.966 4.91-10.966 10.966 0 6.056 4.91 10.966 10.966 10.966Z" />
	<path fill="#2A99D7"
		d="M35.227 44.21c6.059 0 10.971-4.911 10.971-10.97 0-6.06-4.912-10.972-10.971-10.972-6.06 0-10.971 4.912-10.971 10.971 0 6.06 4.912 10.972 10.97 10.972Z" />
	<path fill="#299AD6"
		d="M35.34 44.037c6.062 0 10.976-4.914 10.976-10.976 0-6.062-4.914-10.976-10.976-10.976-6.062 0-10.976 4.914-10.976 10.976 0 6.062 4.915 10.976 10.976 10.976Z" />
	<path fill="#299BD6"
		d="M35.455 43.864c6.064 0 10.98-4.916 10.98-10.981 0-6.065-4.916-10.981-10.98-10.981-6.065 0-10.982 4.916-10.982 10.98 0 6.066 4.917 10.982 10.982 10.982Z" />
	<path fill="#289CD5"
		d="M35.564 43.69c6.067 0 10.986-4.918 10.986-10.985 0-6.068-4.919-10.986-10.986-10.986-6.068 0-10.986 4.918-10.986 10.986 0 6.067 4.918 10.986 10.986 10.986Z" />
	<path fill="#289DD5"
		d="M35.677 43.517c6.07 0 10.991-4.92 10.991-10.99s-4.92-10.992-10.99-10.992-10.992 4.921-10.992 10.991c0 6.07 4.921 10.991 10.991 10.991Z" />
	<path fill="#289ED4"
		d="M35.786 43.344c6.073 0 10.996-4.923 10.996-10.996S41.86 21.352 35.787 21.352c-6.073 0-10.996 4.923-10.996 10.996s4.923 10.996 10.995 10.996Z" />
	<path fill="#279FD4"
		d="M35.9 43.17c6.076 0 11.001-4.925 11.001-11 0-6.076-4.925-11.001-11-11.001-6.076 0-11.002 4.925-11.002 11 0 6.076 4.926 11.002 11.001 11.002Z" />
	<path fill="#27A0D4"
		d="M36.014 42.997c6.079 0 11.006-4.927 11.006-11.006 0-6.078-4.927-11.006-11.006-11.006-6.078 0-11.006 4.928-11.006 11.006 0 6.079 4.928 11.006 11.006 11.006Z" />
	<path fill="#27A0D3"
		d="M36.123 42.824c6.081 0 11.01-4.93 11.01-11.01 0-6.082-4.929-11.012-11.01-11.012-6.081 0-11.01 4.93-11.01 11.011 0 6.081 4.929 11.01 11.01 11.01Z" />
	<path fill="#26A1D3"
		d="M36.237 42.65c6.084 0 11.016-4.931 11.016-11.015 0-6.084-4.932-11.016-11.016-11.016s-11.016 4.932-11.016 11.016S30.153 42.65 36.237 42.65Z" />
	<path fill="#26A2D2"
		d="M36.346 42.477c6.087 0 11.02-4.934 11.02-11.02 0-6.087-4.933-11.021-11.02-11.021-6.086 0-11.02 4.934-11.02 11.02 0 6.087 4.934 11.021 11.02 11.021Z" />
	<path fill="#26A3D2"
		d="M36.46 42.304c6.09 0 11.026-4.937 11.026-11.026 0-6.09-4.937-11.026-11.026-11.026-6.09 0-11.026 4.937-11.026 11.026 0 6.09 4.937 11.026 11.026 11.026Z" />
	<path fill="#25A4D1"
		d="M36.569 42.13c6.092 0 11.03-4.938 11.03-11.03s-4.938-11.03-11.03-11.03-11.03 4.938-11.03 11.03 4.938 11.03 11.03 11.03Z" />
	<path fill="#25A5D1"
		d="M36.683 41.962c6.097 0 11.04-4.943 11.04-11.04 0-6.098-4.943-11.041-11.04-11.041-6.098 0-11.04 4.943-11.04 11.04 0 6.098 4.942 11.04 11.04 11.04Z" />
	<path fill="#24A6D0"
		d="M36.797 41.789c6.1 0 11.045-4.946 11.045-11.046s-4.945-11.045-11.045-11.045-11.045 4.945-11.045 11.045S30.697 41.79 36.797 41.79Z" />
	<path fill="#24A7D0"
		d="M36.906 41.615c6.103 0 11.05-4.947 11.05-11.05 0-6.103-4.947-11.05-11.05-11.05-6.103 0-11.05 4.947-11.05 11.05 0 6.103 4.947 11.05 11.05 11.05Z" />
	<path fill="#24A8CF"
		d="M37.02 41.442c6.105 0 11.055-4.95 11.055-11.056 0-6.105-4.95-11.055-11.055-11.055-6.106 0-11.056 4.95-11.056 11.055 0 6.106 4.95 11.056 11.056 11.056Z" />
	<path fill="#23A9CF"
		d="M37.129 41.269c6.108 0 11.06-4.952 11.06-11.06 0-6.11-4.952-11.061-11.06-11.061-6.109 0-11.06 4.952-11.06 11.06 0 6.109 4.951 11.06 11.06 11.06Z" />
	<path fill="#23A9CE"
		d="M37.242 41.095c6.112 0 11.066-4.954 11.066-11.065s-4.954-11.066-11.066-11.066c-6.11 0-11.065 4.955-11.065 11.066 0 6.111 4.954 11.065 11.066 11.065Z" />
	<path fill="#23AACE"
		d="M37.352 40.922c6.114 0 11.07-4.957 11.07-11.07 0-6.114-4.956-11.07-11.07-11.07s-11.07 4.956-11.07 11.07c0 6.113 4.956 11.07 11.07 11.07Z" />
	<path fill="#22ABCE"
		d="M37.466 40.748c6.116 0 11.075-4.958 11.075-11.075 0-6.116-4.959-11.075-11.075-11.075-6.117 0-11.076 4.959-11.076 11.075 0 6.117 4.959 11.075 11.076 11.075Z" />
	<path fill="#22ACCD"
		d="M37.58 40.575c6.119 0 11.08-4.96 11.08-11.08s-4.961-11.08-11.08-11.08c-6.12 0-11.081 4.96-11.081 11.08s4.96 11.08 11.08 11.08Z" />
	<path fill="#22ADCD"
		d="M37.688 40.402c6.122 0 11.085-4.963 11.085-11.085 0-6.122-4.963-11.085-11.085-11.085-6.122 0-11.085 4.963-11.085 11.085 0 6.122 4.963 11.085 11.085 11.085Z" />
	<path fill="#21AECC"
		d="M37.802 40.228c6.125 0 11.09-4.965 11.09-11.09s-4.965-11.09-11.09-11.09-11.09 4.966-11.09 11.09c0 6.125 4.965 11.09 11.09 11.09Z" />
	<path fill="#21AFCC"
		d="M37.911 40.055c6.128 0 11.095-4.967 11.095-11.095 0-6.128-4.967-11.095-11.095-11.095-6.127 0-11.095 4.967-11.095 11.095 0 6.128 4.968 11.095 11.095 11.095Z" />
	<path fill="#20B0CB"
		d="M38.025 39.882c6.13 0 11.1-4.97 11.1-11.1s-4.97-11.1-11.1-11.1-11.1 4.97-11.1 11.1 4.97 11.1 11.1 11.1Z" />
	<path fill="#20B1CB"
		d="M38.134 39.708c6.133 0 11.105-4.972 11.105-11.105s-4.972-11.105-11.105-11.105-11.105 4.972-11.105 11.105 4.972 11.105 11.105 11.105Z" />
	<path fill="#20B2CA"
		d="M38.248 39.535c6.136 0 11.11-4.974 11.11-11.11 0-6.136-4.974-11.11-11.11-11.11-6.136 0-11.11 4.974-11.11 11.11 0 6.136 4.974 11.11 11.11 11.11Z" />
	<path fill="#1FB2CA"
		d="M38.362 39.362c6.138 0 11.115-4.977 11.115-11.115 0-6.139-4.977-11.115-11.115-11.115-6.139 0-11.115 4.976-11.115 11.115 0 6.138 4.976 11.115 11.115 11.115Z" />
	<path fill="#1FB3C9"
		d="M38.47 39.188c6.142 0 11.12-4.978 11.12-11.12 0-6.14-4.978-11.12-11.12-11.12-6.14 0-11.119 4.98-11.119 11.12 0 6.142 4.979 11.12 11.12 11.12Z" />
	<path fill="#1FB4C9"
		d="M38.585 39.015c6.144 0 11.125-4.98 11.125-11.125 0-6.144-4.981-11.125-11.125-11.125S27.46 21.746 27.46 27.89s4.98 11.125 11.125 11.125Z" />
	<path fill="#1EB5C9"
		d="M38.694 38.846c6.15 0 11.135-4.985 11.135-11.134 0-6.15-4.986-11.135-11.135-11.135-6.15 0-11.135 4.985-11.135 11.135 0 6.15 4.985 11.134 11.135 11.134Z" />
	<path fill="#1EB6C8"
		d="M38.808 38.673c6.152 0 11.14-4.987 11.14-11.14 0-6.152-4.988-11.14-11.14-11.14s-11.14 4.988-11.14 11.14c0 6.153 4.988 11.14 11.14 11.14Z" />
	<path fill="#1DB7C8"
		d="M38.917 38.5c6.155 0 11.144-4.99 11.144-11.145 0-6.155-4.99-11.144-11.144-11.144-6.155 0-11.145 4.99-11.145 11.144 0 6.155 4.99 11.145 11.145 11.145Z" />
	<path fill="#1DB8C7"
		d="M39.03 38.327c6.158 0 11.15-4.992 11.15-11.15s-4.992-11.15-11.15-11.15c-6.157 0-11.149 4.992-11.149 11.15s4.992 11.15 11.15 11.15Z" />
	<path fill="#1DB9C7"
		d="M39.144 38.153c6.16 0 11.155-4.994 11.155-11.154s-4.994-11.155-11.155-11.155c-6.16 0-11.154 4.994-11.154 11.155 0 6.16 4.994 11.154 11.154 11.154Z" />
	<path fill="#1CBAC6"
		d="M39.253 37.98c6.164 0 11.16-4.996 11.16-11.16 0-6.163-4.996-11.16-11.16-11.16-6.163 0-11.159 4.997-11.159 11.16s4.996 11.16 11.16 11.16Z" />
	<path fill="#1CBBC6"
		d="M39.367 37.806c6.166 0 11.165-4.998 11.165-11.164 0-6.166-4.999-11.164-11.164-11.164-6.166 0-11.165 4.998-11.165 11.164 0 6.166 4.999 11.164 11.165 11.164Z" />
	<path fill="#1CBBC5"
		d="M39.476 37.633c6.17 0 11.17-5 11.17-11.17 0-6.168-5-11.169-11.17-11.169-6.168 0-11.169 5.001-11.169 11.17 0 6.168 5 11.169 11.17 11.169Z" />
	<path fill="#1BBCC5"
		d="M39.59 37.46c6.172 0 11.175-5.003 11.175-11.175 0-6.171-5.003-11.174-11.175-11.174-6.17 0-11.174 5.003-11.174 11.174 0 6.172 5.003 11.175 11.174 11.175Z" />
	<path fill="#1BBDC4"
		d="M39.7 37.286c6.174 0 11.179-5.005 11.179-11.18 0-6.173-5.005-11.178-11.18-11.178-6.174 0-11.179 5.005-11.179 11.179s5.005 11.18 11.18 11.18Z" />
	<path fill="#1BBEC4"
		d="M39.813 37.113c6.177 0 11.184-5.008 11.184-11.184 0-6.177-5.007-11.184-11.184-11.184S28.63 19.752 28.63 25.928s5.007 11.184 11.184 11.184Z" />
	<path fill="#1ABFC3"
		d="M39.927 36.94c6.18 0 11.19-5.01 11.19-11.19s-5.01-11.189-11.19-11.189-11.189 5.01-11.189 11.19c0 6.179 5.01 11.189 11.19 11.189Z" />
	<path fill="#1AC0C3"
		d="M40.036 36.766c6.182 0 11.194-5.012 11.194-11.194 0-6.182-5.012-11.194-11.194-11.194-6.182 0-11.194 5.012-11.194 11.194 0 6.182 5.012 11.194 11.194 11.194Z" />
	<path fill="#19C1C3"
		d="M40.15 36.593c6.185 0 11.199-5.014 11.199-11.2 0-6.184-5.014-11.198-11.199-11.198s-11.2 5.014-11.2 11.199 5.015 11.199 11.2 11.199Z" />
	<path fill="#19C2C2"
		d="M40.259 36.42c6.188 0 11.204-5.017 11.204-11.205 0-6.187-5.016-11.204-11.204-11.204-6.188 0-11.204 5.017-11.204 11.204 0 6.188 5.016 11.204 11.204 11.204Z" />
	<path fill="#19C3C2"
		d="M40.373 36.246c6.19 0 11.209-5.018 11.209-11.209 0-6.19-5.019-11.209-11.209-11.209-6.19 0-11.209 5.018-11.209 11.21 0 6.19 5.018 11.208 11.209 11.208Z" />
	<path fill="#18C4C1"
		d="M40.482 36.073c6.193 0 11.214-5.021 11.214-11.214 0-6.194-5.02-11.214-11.214-11.214-6.193 0-11.214 5.02-11.214 11.214 0 6.193 5.02 11.214 11.214 11.214Z" />
	<path fill="#18C4C1"
		d="M40.596 35.9c6.196 0 11.219-5.024 11.219-11.22 0-6.196-5.023-11.219-11.22-11.219-6.195 0-11.218 5.023-11.218 11.22 0 6.195 5.023 11.218 11.219 11.218Z" />
	<path fill="#18C5C0"
		d="M40.71 35.73c6.201 0 11.229-5.026 11.229-11.228 0-6.201-5.028-11.229-11.229-11.229-6.202 0-11.229 5.028-11.229 11.23 0 6.2 5.027 11.228 11.229 11.228Z" />
	<path fill="#17C6C0"
		d="M40.819 35.558c6.204 0 11.233-5.03 11.233-11.234S47.022 13.09 40.82 13.09c-6.205 0-11.234 5.03-11.234 11.234s5.03 11.234 11.234 11.234Z" />
	<path fill="#17C7BF"
		d="M40.933 35.384c6.207 0 11.238-5.032 11.238-11.239 0-6.206-5.031-11.238-11.238-11.238s-11.239 5.032-11.239 11.238c0 6.207 5.032 11.24 11.239 11.24Z" />
	<path fill="#16C8BF"
		d="M41.042 35.21c6.21 0 11.243-5.033 11.243-11.243s-5.034-11.243-11.243-11.243c-6.21 0-11.244 5.034-11.244 11.243 0 6.21 5.034 11.244 11.244 11.244Z" />
	<path fill="#16C9BE"
		d="M41.156 35.038c6.212 0 11.248-5.037 11.248-11.249 0-6.212-5.036-11.249-11.248-11.249-6.213 0-11.249 5.037-11.249 11.249 0 6.212 5.036 11.248 11.249 11.248Z" />
	<path fill="#16CABE"
		d="M41.264 34.864c6.216 0 11.254-5.038 11.254-11.253 0-6.216-5.038-11.254-11.254-11.254-6.215 0-11.253 5.038-11.253 11.254 0 6.215 5.038 11.253 11.253 11.253Z" />
	<path fill="#15CBBE"
		d="M41.378 34.69c6.218 0 11.259-5.04 11.259-11.258 0-6.218-5.04-11.258-11.259-11.258-6.218 0-11.258 5.04-11.258 11.258 0 6.218 5.04 11.259 11.258 11.259Z" />
	<path fill="#15CCBD"
		d="M41.493 34.517c6.22 0 11.263-5.042 11.263-11.263 0-6.22-5.043-11.263-11.263-11.263-6.221 0-11.264 5.042-11.264 11.263 0 6.22 5.043 11.263 11.264 11.263Z" />
	<path fill="#15CDBD"
		d="M41.601 34.344c6.224 0 11.269-5.045 11.269-11.268 0-6.224-5.045-11.269-11.269-11.269-6.223 0-11.268 5.045-11.268 11.269 0 6.223 5.045 11.268 11.268 11.268Z" />
	<path fill="#14CDBC"
		d="M41.715 34.17c6.226 0 11.273-5.046 11.273-11.273 0-6.226-5.047-11.273-11.273-11.273s-11.273 5.047-11.273 11.274c0 6.226 5.047 11.273 11.273 11.273Z" />
	<path fill="#14CEBC"
		d="M41.824 33.997c6.229 0 11.279-5.05 11.279-11.278 0-6.229-5.05-11.278-11.279-11.278s-11.278 5.05-11.278 11.278c0 6.229 5.05 11.278 11.278 11.278Z" />
	<path fill="#14CFBB"
		d="M41.938 33.824c6.232 0 11.283-5.052 11.283-11.283 0-6.232-5.051-11.284-11.283-11.284-6.232 0-11.283 5.052-11.283 11.284 0 6.231 5.051 11.283 11.283 11.283Z" />
	<path fill="#13D0BB"
		d="M42.047 33.65c6.235 0 11.288-5.053 11.288-11.288 0-6.234-5.053-11.288-11.288-11.288-6.234 0-11.288 5.054-11.288 11.288 0 6.235 5.054 11.289 11.288 11.289Z" />
	<path fill="#13D1BA"
		d="M42.161 33.477c6.237 0 11.293-5.056 11.293-11.293 0-6.237-5.056-11.293-11.293-11.293-6.237 0-11.293 5.056-11.293 11.293 0 6.237 5.056 11.293 11.293 11.293Z" />
	<path fill="#12D2BA"
		d="M42.275 33.304c6.24 0 11.298-5.058 11.298-11.298s-5.058-11.298-11.298-11.298-11.298 5.058-11.298 11.298 5.058 11.298 11.298 11.298Z" />
	<path fill="#12D3B9"
		d="M42.384 33.13c6.242 0 11.303-5.06 11.303-11.302 0-6.243-5.06-11.303-11.303-11.303-6.243 0-11.303 5.06-11.303 11.303 0 6.242 5.06 11.303 11.303 11.303Z" />
	<path fill="#12D4B9"
		d="M42.498 32.957c6.245 0 11.308-5.063 11.308-11.308s-5.063-11.308-11.308-11.308S31.19 15.404 31.19 21.65s5.063 11.308 11.308 11.308Z" />
	<path fill="#11D5B9"
		d="M42.607 32.784c6.248 0 11.313-5.065 11.313-11.313s-5.065-11.313-11.313-11.313-11.313 5.065-11.313 11.313 5.065 11.313 11.313 11.313Z" />
	<path fill="#11D6B8"
		d="M42.72 32.615c6.254 0 11.324-5.069 11.324-11.322 0-6.254-5.07-11.323-11.323-11.323-6.254 0-11.323 5.07-11.323 11.323s5.07 11.322 11.323 11.322Z" />
	<path fill="#11D6B8"
		d="M42.83 32.442c6.256 0 11.328-5.072 11.328-11.328 0-6.256-5.072-11.328-11.328-11.328-6.256 0-11.328 5.072-11.328 11.328 0 6.256 5.072 11.328 11.328 11.328Z" />
	<path fill="#10D7B7"
		d="M42.944 32.269c6.258 0 11.332-5.074 11.332-11.333S49.202 9.603 42.944 9.603c-6.26 0-11.333 5.074-11.333 11.333s5.074 11.333 11.333 11.333Z" />
	<path fill="#10D8B7"
		d="M43.057 32.095c6.262 0 11.338-5.076 11.338-11.337 0-6.262-5.076-11.338-11.338-11.338-6.261 0-11.337 5.076-11.337 11.338 0 6.261 5.076 11.337 11.337 11.337Z" />
	<path fill="#0FD9B6"
		d="M43.167 31.922c6.264 0 11.342-5.078 11.342-11.343 0-6.264-5.078-11.342-11.342-11.342-6.265 0-11.343 5.078-11.343 11.342 0 6.265 5.078 11.343 11.343 11.343Z" />
	<path fill="#0FDAB6"
		d="M43.28 31.749c6.268 0 11.348-5.08 11.348-11.348 0-6.267-5.08-11.348-11.347-11.348-6.268 0-11.348 5.08-11.348 11.348 0 6.267 5.08 11.348 11.348 11.348Z" />
	<path fill="#0FDBB5"
		d="M43.39 31.575c6.27 0 11.352-5.082 11.352-11.352 0-6.27-5.083-11.353-11.353-11.353s-11.352 5.083-11.352 11.353 5.083 11.352 11.352 11.352Z" />
	<path fill="#0EDCB5"
		d="M43.504 31.402c6.272 0 11.357-5.085 11.357-11.358 0-6.272-5.085-11.357-11.357-11.357-6.273 0-11.358 5.085-11.358 11.357 0 6.273 5.085 11.358 11.358 11.358Z" />
	<path fill="#0EDDB4"
		d="M43.612 31.229c6.276 0 11.363-5.088 11.363-11.363 0-6.275-5.087-11.362-11.363-11.362-6.275 0-11.362 5.087-11.362 11.362s5.087 11.363 11.362 11.363Z" />
	<path fill="#0EDEB4"
		d="M43.726 31.055c6.278 0 11.367-5.09 11.367-11.367 0-6.278-5.089-11.368-11.367-11.368-6.278 0-11.367 5.09-11.367 11.368 0 6.278 5.089 11.367 11.367 11.367Z" />
	<path fill="#0DDFB3"
		d="M43.84 30.882c6.281 0 11.373-5.092 11.373-11.373 0-6.28-5.092-11.372-11.373-11.372-6.28 0-11.372 5.092-11.372 11.372 0 6.281 5.091 11.373 11.372 11.373Z" />
	<path fill="#0DDFB3"
		d="M43.95 30.708c6.283 0 11.377-5.093 11.377-11.377 0-6.284-5.094-11.377-11.378-11.377-6.283 0-11.377 5.093-11.377 11.377 0 6.284 5.094 11.377 11.377 11.377Z" />
	<path fill="#0DE0B3"
		d="M44.063 30.535c6.286 0 11.382-5.096 11.382-11.382 0-6.287-5.096-11.383-11.382-11.383s-11.382 5.096-11.382 11.383c0 6.286 5.096 11.382 11.382 11.382Z" />
	<path fill="#0CE1B2"
		d="M44.172 30.362c6.29 0 11.387-5.098 11.387-11.387 0-6.29-5.098-11.388-11.387-11.388-6.289 0-11.387 5.098-11.387 11.387 0 6.29 5.098 11.388 11.387 11.388Z" />
	<path fill="#0CE2B2"
		d="M44.286 30.189c6.291 0 11.392-5.101 11.392-11.393 0-6.291-5.1-11.392-11.392-11.392s-11.392 5.1-11.392 11.392 5.1 11.393 11.392 11.393Z" />
	<path fill="#0BE3B1"
		d="M44.395 30.015c6.294 0 11.397-5.103 11.397-11.397 0-6.295-5.103-11.397-11.397-11.397-6.295 0-11.397 5.102-11.397 11.397 0 6.294 5.102 11.397 11.397 11.397Z" />
	<path fill="#0BE4B1"
		d="M44.509 29.842c6.297 0 11.402-5.105 11.402-11.402 0-6.298-5.105-11.403-11.402-11.403-6.297 0-11.402 5.105-11.402 11.403 0 6.297 5.105 11.402 11.402 11.402Z" />
	<path fill="#0BE5B0"
		d="M44.623 29.668c6.3 0 11.407-5.107 11.407-11.407S50.923 6.854 44.623 6.854s-11.407 5.107-11.407 11.407 5.107 11.407 11.407 11.407Z" />
	<path fill="#0AE6B0"
		d="M44.732 29.5c6.305 0 11.417-5.112 11.417-11.417 0-6.306-5.112-11.417-11.417-11.417-6.306 0-11.417 5.111-11.417 11.417 0 6.305 5.111 11.417 11.417 11.417Z" />
	<path fill="#0AE7AF"
		d="M44.846 29.326c6.308 0 11.422-5.113 11.422-11.421 0-6.309-5.114-11.422-11.422-11.422-6.308 0-11.422 5.113-11.422 11.422 0 6.308 5.114 11.421 11.422 11.421Z" />
	<path fill="#0AE8AF"
		d="M44.955 29.153c6.31 0 11.427-5.116 11.427-11.427 0-6.31-5.116-11.427-11.427-11.427s-11.427 5.116-11.427 11.427 5.116 11.427 11.427 11.427Z" />
	<path fill="#09E8AE"
		d="M45.069 28.98c6.313 0 11.432-5.119 11.432-11.432 0-6.314-5.119-11.432-11.432-11.432-6.314 0-11.432 5.118-11.432 11.432S38.755 28.98 45.069 28.98Z" />
	<path fill="#09E9AE"
		d="M45.178 28.806c6.316 0 11.436-5.12 11.436-11.436 0-6.317-5.12-11.437-11.436-11.437-6.317 0-11.437 5.12-11.437 11.437 0 6.316 5.12 11.436 11.437 11.436Z" />
	<path fill="#08EAAE"
		d="M45.291 28.633c6.32 0 11.442-5.122 11.442-11.442 0-6.319-5.123-11.441-11.442-11.441S33.85 10.872 33.85 17.19c0 6.32 5.122 11.442 11.441 11.442Z" />
	<path fill="#08EBAD"
		d="M45.405 28.46c6.322 0 11.447-5.125 11.447-11.447 0-6.322-5.125-11.447-11.447-11.447-6.321 0-11.446 5.125-11.446 11.447 0 6.322 5.125 11.447 11.446 11.447Z" />
	<path fill="#08ECAD"
		d="M45.514 28.287c6.325 0 11.452-5.128 11.452-11.452 0-6.325-5.127-11.452-11.452-11.452-6.324 0-11.451 5.127-11.451 11.452 0 6.324 5.127 11.451 11.451 11.451Z" />
	<path fill="#07EDAC"
		d="M45.628 28.113c6.328 0 11.457-5.13 11.457-11.457 0-6.327-5.13-11.456-11.457-11.456-6.327 0-11.456 5.13-11.456 11.456 0 6.328 5.129 11.457 11.456 11.457Z" />
	<path fill="#07EEAC"
		d="M45.737 27.94c6.33 0 11.462-5.132 11.462-11.462S52.068 5.017 45.737 5.017c-6.33 0-11.461 5.131-11.461 11.461S39.407 27.94 45.737 27.94Z" />
	<path fill="#07EFAB"
		d="M45.851 27.766c6.333 0 11.467-5.133 11.467-11.466 0-6.333-5.134-11.467-11.467-11.467-6.332 0-11.466 5.134-11.466 11.467s5.134 11.466 11.466 11.466Z" />
	<path fill="#06F0AB"
		d="M45.96 27.593c6.335 0 11.471-5.136 11.471-11.471 0-6.336-5.136-11.472-11.471-11.472-6.336 0-11.471 5.136-11.471 11.472 0 6.335 5.136 11.47 11.471 11.47Z" />
	<path fill="#06F1AA"
		d="M46.074 27.42c6.338 0 11.477-5.139 11.477-11.477S52.411 4.467 46.073 4.467 34.598 9.605 34.598 15.943c0 6.338 5.138 11.477 11.476 11.477Z" />
	<path fill="#06F1AA"
		d="M46.188 27.246c6.34 0 11.481-5.14 11.481-11.481S52.53 4.283 46.188 4.283s-11.482 5.14-11.482 11.482c0 6.34 5.14 11.481 11.482 11.481Z" />
	<path fill="#05F2A9"
		d="M46.297 27.073c6.344 0 11.486-5.143 11.486-11.487 0-6.343-5.142-11.486-11.486-11.486S34.81 9.243 34.81 15.586c0 6.344 5.142 11.487 11.486 11.487Z" />
	<path fill="#05F3A9"
		d="M46.41 26.9c6.347 0 11.492-5.145 11.492-11.492 0-6.346-5.145-11.491-11.491-11.491S34.92 9.062 34.92 15.408c0 6.347 5.145 11.492 11.49 11.492Z" />
	<path fill="#04F4A8"
		d="M46.52 26.726c6.35 0 11.496-5.147 11.496-11.496 0-6.35-5.147-11.496-11.496-11.496-6.35 0-11.496 5.147-11.496 11.496S40.17 26.726 46.52 26.726Z" />
	<path fill="#04F5A8"
		d="M46.634 26.553c6.352 0 11.5-5.15 11.5-11.501 0-6.352-5.148-11.502-11.5-11.502S35.133 8.7 35.133 15.052s5.149 11.5 11.5 11.5Z" />
	<path fill="#04F6A8"
		d="M46.743 26.384c6.357 0 11.51-5.153 11.51-11.51 0-6.358-5.153-11.512-11.51-11.512-6.358 0-11.511 5.154-11.511 11.511 0 6.358 5.153 11.511 11.51 11.511Z" />
	<path fill="#03F7A7"
		d="M46.857 26.211c6.36 0 11.516-5.156 11.516-11.516S53.217 3.179 46.857 3.179 35.34 8.335 35.34 14.695s5.156 11.516 11.516 11.516Z" />
	<path fill="#03F8A7"
		d="M46.97 26.038c6.363 0 11.521-5.159 11.521-11.521 0-6.363-5.158-11.521-11.52-11.521-6.363 0-11.521 5.158-11.521 11.52 0 6.363 5.158 11.522 11.52 11.522Z" />
	<path fill="#03F9A6"
		d="M47.08 25.864c6.365 0 11.526-5.16 11.526-11.526 0-6.365-5.16-11.526-11.526-11.526s-11.526 5.16-11.526 11.526 5.16 11.526 11.526 11.526Z" />
	<path fill="#02FAA6"
		d="M47.193 25.69c6.369 0 11.531-5.162 11.531-11.53 0-6.368-5.162-11.531-11.53-11.531-6.37 0-11.532 5.163-11.532 11.53 0 6.37 5.163 11.532 11.531 11.532Z" />
	<path fill="#02FAA5"
		d="M47.302 25.518c6.371 0 11.536-5.165 11.536-11.536 0-6.371-5.165-11.536-11.536-11.536-6.37 0-11.535 5.165-11.535 11.536 0 6.37 5.164 11.536 11.535 11.536Z" />
	<path fill="#01FBA5"
		d="M47.416 25.344c6.374 0 11.541-5.167 11.541-11.54 0-6.374-5.167-11.541-11.54-11.541-6.375 0-11.541 5.167-11.541 11.54 0 6.374 5.166 11.541 11.54 11.541Z" />
	<path fill="#01FCA4"
		d="M47.525 25.17c6.377 0 11.546-5.168 11.546-11.545 0-6.376-5.17-11.546-11.546-11.546-6.376 0-11.545 5.17-11.545 11.546 0 6.377 5.169 11.546 11.545 11.546Z" />
	<path fill="#01FDA4"
		d="M47.64 24.997c6.379 0 11.55-5.17 11.55-11.55 0-6.38-5.171-11.55-11.55-11.55-6.38 0-11.551 5.17-11.551 11.55 0 6.38 5.171 11.55 11.55 11.55Z" />
	<path fill="#00FEA3"
		d="M47.753 24.824c6.382 0 11.556-5.174 11.556-11.556 0-6.382-5.174-11.555-11.556-11.555-6.382 0-11.556 5.173-11.556 11.555s5.174 11.556 11.556 11.556Z" />
	<path fill="#00FFA3"
		d="M47.862 24.65c6.385 0 11.56-5.175 11.56-11.56 0-6.385-5.175-11.56-11.56-11.56-6.385 0-11.56 5.175-11.56 11.56 0 6.385 5.175 11.56 11.56 11.56Z" />
</svg>
