<svg viewBox="0 0 93 48" fill="none" xmlns="http://www.w3.org/2000/svg">
	<path
		d="M86.0788 11.791V14.6946C83.4383 12.2932 79.9366 10.8284 76.1003 10.8284C67.8986 10.8284 61.2246 17.5228 61.2246 25.7496C61.2246 33.9765 67.8986 40.6708 76.1003 40.6708C79.9366 40.6708 83.4383 39.206 86.0788 36.8046V39.9345H92.2106V11.791H86.0788ZM76.0977 34.4786C71.2991 34.4786 67.3954 30.5629 67.3954 25.7496C67.3954 20.9363 71.2991 17.0206 76.0977 17.0206C80.8963 17.0206 84.8 20.9363 84.8 25.7496C84.8 30.5629 80.8963 34.4786 76.0977 34.4786Z"
		fill="white" />
	<path d="M57.8213 0.00488281H51.6895V39.9345H57.8213V0.00488281Z" fill="white" />
	<path
		d="M0.606398 25.8458C2.82932 33.136 10.0532 34.5462 14.94 38.7143C21.1496 44.0115 22.514 50.4145 32.9905 47.079C55.0304 40.062 52.1538 4.28745 31.4005 0.202643C24.0495 -1.24395 24.5424 5.44264 13.6586 7.95336C2.68925 10.4823 -1.72806 18.1914 0.606398 25.8458ZM25.7485 40.6838C17.5468 40.6838 10.8728 33.9894 10.8728 25.7626C10.8728 17.5357 17.5468 10.8413 25.7485 10.8413C33.9502 10.8413 40.6242 17.5357 40.6242 25.7626C40.6242 33.992 33.9502 40.6838 25.7485 40.6838Z"
		fill="white" />
</svg>
